<?xml version="1.0" encoding="UTF-8" standalone="no"?>
<!-- Created with Inkscape (http://www.inkscape.org/) -->

<svg
   width="102.88665mm"
   height="101.4842mm"
   viewBox="0 0 102.88665 101.4842"
   version="1.1"
   id="svg5"
   xml:space="preserve"
   inkscape:version="1.2.1 (9c6d41e410, 2022-07-14)"
   sodipodi:docname="logo2.svg"
   xmlns:inkscape="http://www.inkscape.org/namespaces/inkscape"
   xmlns:sodipodi="http://sodipodi.sourceforge.net/DTD/sodipodi-0.dtd"
   xmlns="http://www.w3.org/2000/svg"
   xmlns:svg="http://www.w3.org/2000/svg"><sodipodi:namedview
     id="namedview7"
     pagecolor="#ffffff"
     bordercolor="#000000"
     borderopacity="0.25"
     inkscape:showpageshadow="2"
     inkscape:pageopacity="0.0"
     inkscape:pagecheckerboard="0"
     inkscape:deskcolor="#d1d1d1"
     inkscape:document-units="mm"
     showgrid="false"
     inkscape:zoom="1.0456808"
     inkscape:cx="379.17882"
     inkscape:cy="214.69267"
     inkscape:window-width="1920"
     inkscape:window-height="991"
     inkscape:window-x="-9"
     inkscape:window-y="-9"
     inkscape:window-maximized="1"
     inkscape:current-layer="layer1" /><defs
     id="defs2" /><g
     inkscape:label="Layer 1"
     inkscape:groupmode="layer"
     id="layer1"
     transform="translate(-51.258151,6.8474286)"><g
       id="g1613"
       style="fill:#333333"><g
         id="g13383"
         style="fill:#333333;stroke:#1a1a1a"><path
           style="fill:#333333;fill-opacity:1;fill-rule:evenodd;stroke:#1a1a1a;stroke-width:0.179366;stroke-linecap:round;stroke-linejoin:round;stroke-dasharray:none;stroke-opacity:1;paint-order:fill markers stroke"
           d=""
           id="path15289"
           transform="scale(0.26458333)" /><path
           style="fill:#333333;fill-opacity:1;fill-rule:evenodd;stroke:#1a1a1a;stroke-width:0.126831;stroke-linecap:round;stroke-linejoin:round;stroke-dasharray:none;stroke-opacity:1;paint-order:fill markers stroke"
           d=""
           id="path16033"
           transform="scale(0.26458333)" /><path
           style="fill:#333333;fill-opacity:1;fill-rule:evenodd;stroke:#1a1a1a;stroke-width:0.126831;stroke-linecap:round;stroke-linejoin:round;stroke-dasharray:none;stroke-opacity:1;paint-order:fill markers stroke"
           d=""
           id="path16035"
           transform="scale(0.26458333)" /><path
           style="fill:#333333;fill-opacity:1;fill-rule:evenodd;stroke:#1a1a1a;stroke-width:0.0448414;stroke-linecap:round;stroke-linejoin:round;stroke-dasharray:none;stroke-opacity:1;paint-order:fill markers stroke"
           d=""
           id="path16039"
           transform="scale(0.26458333)" /><path
           style="fill:#333333;fill-opacity:1;fill-rule:evenodd;stroke:#1a1a1a;stroke-width:0.0448414;stroke-linecap:round;stroke-linejoin:round;stroke-dasharray:none;stroke-opacity:1;paint-order:fill markers stroke"
           d=""
           id="path16041"
           transform="scale(0.26458333)" /><path
           style="fill:#333333;fill-opacity:1;fill-rule:evenodd;stroke:#1a1a1a;stroke-width:0.0448414;stroke-linecap:round;stroke-linejoin:round;stroke-dasharray:none;stroke-opacity:1;paint-order:fill markers stroke"
           d=""
           id="path16771"
           transform="scale(0.26458333)" /><g
           id="g17696"
           style="fill:#333333" /></g></g><g
       id="g21604"
       transform="matrix(0.89671111,0,0,0.89671111,10.607922,4.5338317)"><g
         id="g416"
         style="fill:#808080"
         transform="translate(-7.5907496,-93.065268)"><path
           style="fill:#808080;fill-rule:evenodd;stroke:#808080;stroke-width:0.396875;stroke-linecap:round;stroke-linejoin:round;paint-order:fill markers stroke"
           d="m 93.57289,187.50361 -14.492169,-70.31385 9.303616,-5.7253 47.949393,39.89819 -12.88192,-60.652409 6.97771,-4.293976 14.67108,70.313855 -8.94578,5.18855 -15.56567,-12.16626 -24.332525,14.67108 4.115065,18.78615 z"
           id="path356" /><path
           style="fill:#ffffff;fill-rule:evenodd;stroke:#ffffff;stroke-width:0.396875;stroke-linecap:round;stroke-linejoin:round;paint-order:fill markers stroke"
           d="M 94.947614,157.19175 115.75892,144.92004 87.862914,121.57849 Z"
           id="path412" /></g><g
         id="g18647"><g
           id="g1538"
           style="fill:#1a1a1a;stroke:#1a1a1a"><path
             style="fill:#1a1a1a;fill-rule:evenodd;stroke:#1a1a1a;stroke-width:0.397;stroke-linecap:round;stroke-linejoin:round;stroke-dasharray:none;paint-order:fill markers stroke"
             d="m 78.365061,36.27515 c 0,0 -2.550933,-7.811321 -12.837199,-6.977711 -10.286267,0.83361 -12.100761,7.32562 -12.100761,7.32562"
             id="path684"
             sodipodi:nodetypes="czc" /><g
             id="g1543"
             style="fill:#1a1a1a;stroke:#1a1a1a"><path
               style="fill:#1a1a1a;fill-rule:evenodd;stroke:#1a1a1a;stroke-width:0.397;stroke-linecap:round;stroke-linejoin:round;stroke-dasharray:none;paint-order:fill markers stroke"
               d="m 78.81235,52.762862 c 0,0 -2.640391,10.003038 -13.508133,8.901054 C 54.436475,60.561933 52.82485,52.941778 52.82485,52.941778"
               id="path1420"
               sodipodi:nodetypes="czc" /><path
               style="fill:#1a1a1a;fill-opacity:1;fill-rule:evenodd;stroke:#1a1a1a;stroke-width:0.396999;stroke-linecap:round;stroke-linejoin:round;stroke-dasharray:none;stroke-opacity:1;paint-order:fill markers stroke"
               d="m 53.562876,54.63637 c 0,0 -2.122918,-4.200682 -2.106126,-9.599667 0.01679,-5.398986 2.732136,-9.971561 2.732136,-9.971561"
               id="path1534"
               sodipodi:nodetypes="czc" /></g></g><path
           style="fill:#ffffff;fill-opacity:1;fill-rule:evenodd;stroke:#1a1a1a;stroke-width:0.396999;stroke-linecap:round;stroke-linejoin:round;stroke-dasharray:none;stroke-opacity:1;paint-order:fill markers stroke"
           d="m 73.503749,39.218867 c 0,0 -0.934761,-2.673866 -3.44757,-3.743915 -4.54366,-1.934861 -12.155587,-1.38741 -12.26234,10.042215 -0.106157,11.365876 7.688377,12.123538 12.454525,9.725262 2.646463,-1.331673 3.571666,-5.080232 3.571666,-5.080232"
           id="path1599"
           sodipodi:nodetypes="csssc" /><path
           style="fill:#1a1a1a;fill-opacity:1;fill-rule:evenodd;stroke:#1a1a1a;stroke-width:0.396999;stroke-linecap:round;stroke-linejoin:round;stroke-dasharray:none;stroke-opacity:1;paint-order:fill markers stroke"
           d="m 73.535378,39.282123 4.87073,-2.84653"
           id="path1601" /><path
           style="fill:#1a1a1a;fill-opacity:1;fill-rule:evenodd;stroke:#1a1a1a;stroke-width:0.396999;stroke-linecap:round;stroke-linejoin:round;stroke-dasharray:none;stroke-opacity:1;paint-order:fill markers stroke"
           d="m 73.82003,50.067313 5.0605,2.625135"
           id="path1603" /><path
           style="fill:#1a1a1a;fill-opacity:1;fill-rule:evenodd;stroke:#1a1a1a;stroke-width:0.0474573;stroke-linecap:round;stroke-linejoin:round;stroke-dasharray:none;stroke-opacity:1;paint-order:fill markers stroke"
           d="m 66.071141,61.909076 c -0.06958,-0.0068 -0.311537,-0.02744 -0.537679,-0.04584 -3.199815,-0.260334 -6.159814,-1.249558 -8.389403,-2.803713 -0.637029,-0.444048 -1.046231,-0.790646 -1.670597,-1.415013 -0.98959,-0.989589 -1.602859,-1.830297 -2.179852,-2.988281 -0.307533,-0.617196 -0.648605,-1.525084 -0.648605,-1.726499 0,-0.03613 -0.07141,-0.278653 -0.158681,-0.538935 -0.576218,-1.718479 -0.972566,-3.641299 -1.143924,-5.549548 -0.05548,-0.617886 -0.05529,-2.722747 2.65e-4,-3.289326 0.187135,-1.907133 0.648356,-3.835805 1.365216,-5.708875 0.32046,-0.837329 0.852032,-2.053214 1.066564,-2.439606 0.481865,-0.867871 1.026745,-1.567614 1.831972,-2.352638 1.435458,-1.399445 3.312502,-2.461975 5.529811,-3.130233 2.52776,-0.761822 5.501198,-1.039982 7.923728,-0.741251 0.535699,0.06606 1.406337,0.241437 1.951691,0.393144 2.717752,0.756021 4.994315,2.396985 6.502699,4.687197 0.515763,0.783093 0.95668,1.659678 1.044461,2.076487 0.0329,0.156215 0.03061,0.173487 -0.02936,0.222049 -0.03577,0.02896 -1.170953,0.698482 -2.522635,1.487816 -2.289519,1.336997 -2.463136,1.432634 -2.538479,1.398304 -0.05009,-0.02283 -0.100351,-0.0878 -0.13203,-0.170683 -0.207581,-0.543091 -0.731742,-1.431099 -1.137073,-1.926373 -0.279641,-0.341693 -0.869074,-0.897318 -1.210868,-1.14141 -0.883867,-0.631219 -2.368773,-1.140044 -3.908915,-1.33945 -0.498107,-0.06449 -1.658411,-0.0734 -2.115336,-0.01624 -2.545749,0.318452 -4.429262,1.63871 -5.606298,3.929761 -0.67746,1.318648 -1.089001,2.875967 -1.294498,4.898516 -0.07169,0.705642 -0.08178,3.213921 -0.01564,3.890259 0.215104,2.199611 0.684543,3.810458 1.52527,5.233837 0.372798,0.631163 1.027917,1.394142 1.579973,1.840108 1.845691,1.491001 4.402987,1.907437 7.132142,1.161418 0.907077,-0.247949 1.966976,-0.716196 2.51165,-1.109607 0.891347,-0.643806 1.705261,-1.72783 2.298187,-3.06088 0.22302,-0.501407 0.471675,-1.195753 0.532585,-1.487183 0.03052,-0.146042 0.05783,-0.200028 0.118499,-0.234297 0.0753,-0.04253 0.194278,0.01535 2.653665,1.291167 1.416156,0.734631 2.592819,1.350624 2.614808,1.368875 0.05297,0.04396 0.05096,0.181805 -0.0035,0.24434 -0.02394,0.02746 -0.08217,0.17091 -0.1294,0.318772 -0.22043,0.690065 -0.658418,1.660422 -1.102656,2.442917 -1.437931,2.532822 -3.515291,4.423309 -5.968759,5.431827 -1.018321,0.418589 -2.08783,0.688125 -3.335269,0.840554 -0.388678,0.04749 -2.092746,0.089 -2.403737,0.05854 z m -8.726258,-8.984578 1.869165,-0.0209 -0.142147,-0.252767 c -0.665099,-1.182693 -1.15125,-2.87318 -1.347825,-4.686777 -0.128725,-1.187608 -0.143565,-2.935597 -0.03518,-4.143282 0.280406,-3.124351 1.099236,-5.339091 2.593134,-7.013792 l 0.274114,-0.30729 -0.531826,0.01564 c -0.292505,0.0086 -1.734487,0.03119 -3.204403,0.0502 -1.469917,0.01902 -2.677946,0.03969 -2.684508,0.04596 -0.0066,0.0063 -0.122602,3.48828 -0.257865,7.737806 -0.135263,4.249529 -0.253648,7.922114 -0.263078,8.161303 l -0.01714,0.434885 0.939202,-2.9e-5 c 0.516559,-1.6e-5 1.780323,-0.0094 2.808361,-0.02096 z m 20.18987,-0.137137 c 0.662287,-1.8e-5 1.077804,-0.0114 1.059543,-0.02907 -0.069,-0.06668 -4.615294,-2.403768 -4.634294,-2.382326 -0.01143,0.01288 -0.05862,0.142845 -0.104886,0.288784 -0.188672,0.595178 -0.581163,1.497362 -0.853794,1.962539 l -0.118433,0.202073 1.781138,-0.02098 c 0.979625,-0.01154 2.271453,-0.02101 2.870726,-0.02101 z m -1.49429,-15.173118 c 1.186447,-0.691745 2.15306,-1.271953 2.148028,-1.289349 -0.01146,-0.03965 -1.55429,-0.04107 -4.361934,-0.004 l -2.080929,0.02747 0.343696,0.351996 c 0.542973,0.556091 1.023406,1.248963 1.377294,1.986317 l 0.162012,0.337566 0.127328,-0.07613 c 0.07003,-0.04188 1.098058,-0.642107 2.284505,-1.333852 z"
           id="path15283" /><path
           style="fill:#1a1a1a;fill-opacity:1;fill-rule:evenodd;stroke:#1a1a1a;stroke-width:0.0474573;stroke-linecap:round;stroke-linejoin:round;stroke-dasharray:none;stroke-opacity:1;paint-order:fill markers stroke"
           d="m 53.647223,52.687309 c 0.0069,-0.12764 0.111596,-3.334792 0.232587,-7.127004 0.25431,-7.970692 0.285568,-8.88184 0.305456,-8.903234 0.008,-0.0087 1.205463,-0.03243 2.660928,-0.05284 1.455465,-0.0204 2.862339,-0.04241 3.126391,-0.04888 l 0.480094,-0.01177 -0.125915,0.143685 c -0.256561,0.292775 -0.63496,0.772615 -0.782643,0.992455 -1.041006,1.549633 -1.634627,3.457009 -1.886638,6.061974 -0.109691,1.133864 -0.09345,3.1003 0.0354,4.28561 0.177096,1.629161 0.606568,3.191216 1.202222,4.372692 0.125005,0.247944 0.21804,0.456075 0.206748,0.462515 -0.0113,0.0064 -1.246039,0.02188 -2.743883,0.03429 l -2.723353,0.02259 z"
           id="path15285" /><path
           style="fill:#1a1a1a;fill-opacity:1;fill-rule:evenodd;stroke:#1a1a1a;stroke-width:0.0474573;stroke-linecap:round;stroke-linejoin:round;stroke-dasharray:none;stroke-opacity:1;paint-order:fill markers stroke"
           d="m 54.13652,36.783502 c 0,-0.04349 0.0072,-0.06128 0.01595,-0.03953 0.0088,0.02175 0.0088,0.05732 0,0.07907 -0.0088,0.02175 -0.01595,0.0039 -0.01595,-0.03954 z"
           id="path15287" /><path
           style="fill:#1a1a1a;fill-opacity:1;fill-rule:evenodd;stroke:#1a1a1a;stroke-width:0.0474573;stroke-linecap:round;stroke-linejoin:round;stroke-dasharray:none;stroke-opacity:1;paint-order:fill markers stroke"
           d="M 65.416643,61.863985 C 61.79731,61.514629 58.737266,60.385396 56.468472,58.561871 54.72949,57.164184 53.415932,55.338617 52.76864,53.419893 52.70115,53.219847 52.645727,53.02618 52.645471,52.989527 c -2.57e-4,-0.03665 -0.08642,-0.335539 -0.191474,-0.664192 -0.559382,-1.749972 -0.897482,-3.350947 -1.091361,-5.167809 -0.06673,-0.625348 -0.09611,-2.54599 -0.04973,-3.251526 0.1284,-1.953411 0.655593,-4.20542 1.467451,-6.268537 0.840711,-2.136442 1.317215,-2.970112 2.350161,-4.111755 1.261182,-1.393893 2.978055,-2.514401 5.028624,-3.281902 1.610264,-0.602702 3.530393,-1.00017 5.532461,-1.145225 0.571338,-0.0414 2.103654,-0.04154 2.628447,-2.49e-4 1.595991,0.125574 3.093125,0.495964 4.426583,1.095132 2.288198,1.028165 4.199173,2.828295 5.356531,5.045829 0.408014,0.781764 0.548296,1.219546 0.424972,1.326192 -0.102368,0.08852 -4.807321,2.832372 -4.94742,2.885255 -0.06422,0.02424 -0.100008,0.02291 -0.133623,-0.005 -0.02524,-0.02096 -0.167508,-0.283392 -0.316127,-0.583192 -0.575392,-1.1607 -1.32367,-2.073912 -2.199817,-2.684698 -0.64925,-0.452607 -1.7018,-0.869889 -2.813436,-1.115385 -0.899499,-0.198644 -1.123807,-0.221644 -2.173087,-0.222819 -0.856929,-0.0011 -0.98816,0.006 -1.35473,0.07219 -2.315612,0.417917 -3.973552,1.606036 -5.110924,3.662608 -0.646033,1.168146 -1.098651,2.684754 -1.330352,4.457687 -0.109397,0.837081 -0.133873,1.477817 -0.117678,3.080766 0.01286,1.273611 0.02498,1.575699 0.07934,1.977652 0.240297,1.777092 0.565539,2.937316 1.151898,4.109114 0.26815,0.535881 0.401679,0.75329 0.739738,1.204409 1.158345,1.545749 2.68579,2.423877 4.677587,2.689146 0.446389,0.05945 1.495144,0.06854 1.945129,0.01685 1.691918,-0.194334 3.445227,-0.831704 4.383183,-1.593398 0.786746,-0.638899 1.508421,-1.632233 2.042501,-2.811356 0.214344,-0.473223 0.445418,-1.099077 0.545835,-1.478378 0.116385,-0.439611 0.06749,-0.443058 1.080747,0.0762 1.628809,0.834703 4.141149,2.143879 4.258979,2.219352 0.133395,0.08544 0.15167,0.172418 0.06958,0.331165 -0.02697,0.05215 -0.09929,0.240023 -0.160729,0.417502 -0.67986,1.964077 -1.930201,3.93246 -3.399382,5.351563 -2.014715,1.94604 -4.596686,3.080904 -7.444888,3.272282 -0.724551,0.04868 -1.904884,0.03451 -2.583813,-0.03102 z m -9.938316,-8.942234 c -0.01307,-0.01304 -0.441034,-0.02373 -0.951047,-0.02373 -0.510013,0 -0.920721,0.01066 -0.912683,0.02373 0.008,0.01304 0.436007,0.02373 0.951048,0.02373 0.515037,0 0.925745,-0.01066 0.912682,-0.02373 z m 3.160205,-0.04006 c -0.274267,-0.02133 -1.50436,-0.0054 -1.531326,0.01982 -0.0072,0.0068 0.398383,0.01008 0.901401,0.0073 0.63465,-0.0035 0.827455,-0.01177 0.629925,-0.02714 z m 0.427159,-0.228365 c -0.06831,-0.125889 -0.139348,-0.231566 -0.157864,-0.234839 -0.02204,-0.0039 -0.02241,-2.64e-4 -0.0011,0.01019 0.01794,0.0089 0.02458,0.02916 0.01474,0.04507 -0.0098,0.0159 -0.0019,0.02893 0.01749,0.02893 0.01945,0 0.02657,0.01423 0.01582,0.03163 -0.01074,0.01741 -0.0036,0.03163 0.01582,0.03163 0.01945,0 0.02656,0.01423 0.01582,0.03163 -0.01074,0.01741 -0.0045,0.03163 0.01394,0.03163 0.01841,0 0.03047,0.01066 0.02678,0.02373 -0.0037,0.01304 0.01103,0.05575 0.03274,0.09489 0.0217,0.03914 0.031,0.07116 0.02066,0.07116 -0.01035,0 -0.01,0.01424 7.94e-4,0.03163 0.01074,0.01741 0.03958,0.03163 0.06405,0.03163 0.03092,0 0.0066,-0.06989 -0.07969,-0.228888 z m 19.193311,0.113999 0.295688,-0.01799 -0.0901,-0.0547 c -0.121766,-0.07392 -2.856333,-1.486747 -3.743155,-1.933922 -0.391398,-0.197358 -0.720593,-0.371686 -0.731544,-0.387397 -0.01095,-0.01572 -0.06628,0.111829 -0.122947,0.283421 -0.207322,0.627743 -0.583324,1.500878 -0.823214,1.911628 -0.06881,0.117806 -0.125097,0.221605 -0.125097,0.230664 0,0.02135 4.951764,-0.008 5.340373,-0.0317 z m -24.599164,-0.67835 c -0.02222,-0.113226 -0.02733,-0.07368 -0.0269,0.208119 5.3e-4,0.334322 0.0016,0.339783 0.02743,0.13979 0.015,-0.115999 0.01476,-0.269994 -5.29e-4,-0.347909 z m 5.21458,0.200213 c -7.93e-4,-0.01304 -0.03007,-0.07354 -0.06519,-0.134419 -0.03513,-0.06089 -0.05419,-0.08223 -0.04235,-0.04744 0.01183,0.03479 0.0222,0.08105 0.02302,0.10279 7.94e-4,0.02175 0.01421,0.03954 0.02973,0.03954 0.01553,0 0.01942,0.01423 0.0087,0.03163 -0.01074,0.01738 -0.0045,0.03163 0.01394,0.03163 0.01841,0 0.0329,-0.01066 0.03217,-0.02371 z m -0.206896,-0.461989 c -0.01098,-0.02858 -0.03277,-0.05197 -0.04846,-0.05197 -0.01569,0 -0.01114,0.02782 0.01011,0.06182 0.04477,0.07169 0.06742,0.06587 0.03836,-0.0098 z m -0.07643,-0.17848 c 0,-0.01741 -0.01508,-0.03163 -0.0335,-0.03163 -0.01841,0 -0.02471,0.01423 -0.01394,0.03163 0.01074,0.01738 0.02582,0.03163 0.03349,0.03163 0.0077,0 0.01394,-0.01423 0.01394,-0.03163 z m -4.900861,-0.526978 c -0.02082,-0.124101 -0.02564,-0.08727 -0.0254,0.194884 2.65e-4,0.316439 0.0026,0.330279 0.02569,0.153024 0.01397,-0.107185 0.01384,-0.263744 -2.65e-4,-0.347908 z m 4.856803,0.413692 c -0.01056,-0.02751 -0.01921,-0.05598 -0.01921,-0.06326 0,-0.0073 -0.01598,-0.01323 -0.0355,-0.01323 -0.02611,0 -0.02619,0.01122 -2.64e-4,0.04245 0.01937,0.02334 0.02585,0.05181 0.01442,0.06325 -0.01146,0.01146 -0.0027,0.02082 0.01947,0.02082 0.02373,0 0.0324,-0.02056 0.02109,-0.05003 z m -0.145712,-0.392764 c 0,-0.01741 -0.01508,-0.03163 -0.0335,-0.03163 -0.01841,0 -0.02469,0.01423 -0.01394,0.03163 0.01074,0.01741 0.02582,0.03163 0.03349,0.03163 0.0077,0 0.01394,-0.01423 0.01394,-0.03163 z m -0.03163,-0.09488 c 0,-0.01741 -0.01508,-0.03163 -0.03349,-0.03163 -0.01841,0 -0.02471,0.01423 -0.01394,0.03163 0.01074,0.01741 0.02582,0.03163 0.0335,0.03163 0.0077,0 0.01394,-0.01423 0.01394,-0.03163 z m -0.03163,-0.09488 c 0,-0.01738 -0.01508,-0.03163 -0.03349,-0.03163 -0.01841,0 -0.02471,0.01423 -0.01394,0.03163 0.01074,0.01741 0.02582,0.03163 0.0335,0.03163 0.0077,0 0.01394,-0.01423 0.01394,-0.03163 z m -0.03163,-0.12651 c 0,-0.01741 -0.0063,-0.03163 -0.01394,-0.03163 -0.0077,0 -0.02275,0.01423 -0.0335,0.03163 -0.01074,0.01738 -0.0045,0.03163 0.01394,0.03163 0.01841,0 0.03349,-0.01423 0.03349,-0.03163 z m -0.03163,-0.09488 c 0,-0.01741 -0.0063,-0.03163 -0.01394,-0.03163 -0.0077,0 -0.02275,0.01423 -0.0335,0.03163 -0.01074,0.01738 -0.0045,0.03163 0.01394,0.03163 0.01842,0 0.03349,-0.01423 0.03349,-0.03163 z m -4.551481,-0.580477 c -0.02336,-0.139883 -0.02718,-0.113837 -0.02704,0.185126 1.46e-4,0.316201 0.0026,0.331036 0.0272,0.162782 0.01503,-0.102867 0.01495,-0.257453 -1.56e-4,-0.347908 z m 4.519853,0.485592 c 0,-0.01738 -0.01508,-0.03163 -0.03349,-0.03163 -0.01842,0 -0.02471,0.01423 -0.01394,0.03163 0.01074,0.01741 0.02582,0.03163 0.0335,0.03163 0.0077,0 0.01394,-0.01423 0.01394,-0.03163 z m -0.03163,-0.126513 c 0,-0.01738 -0.0063,-0.03163 -0.01394,-0.03163 -0.0077,0 -0.02275,0.01423 -0.0335,0.03163 -0.01074,0.01741 -0.0045,0.03163 0.01394,0.03163 0.01842,0 0.03349,-0.01423 0.03349,-0.03163 z m -0.03163,-0.09488 c 0,-0.01738 -0.01508,-0.03163 -0.03349,-0.03163 -0.01841,0 -0.02471,0.01423 -0.01394,0.03163 0.01074,0.01741 0.02582,0.03163 0.0335,0.03163 0.0077,0 0.01394,-0.01423 0.01394,-0.03163 z m -0.04165,-0.132442 c -0.01011,-0.02524 -0.0176,-0.01773 -0.0191,0.0191 -0.0013,0.03334 0.0061,0.05202 0.01662,0.04151 0.0105,-0.0105 0.01164,-0.03779 0.0024,-0.06062 z m -0.02159,-0.106635 c 0,-0.02712 -0.01447,-0.04037 -0.03214,-0.02944 -0.01767,0.01093 -0.02397,0.03312 -0.01394,0.04931 0.02711,0.04387 0.04609,0.03569 0.04609,-0.01987 z m -0.03163,-0.126511 c 0,-0.02712 -0.01447,-0.04037 -0.03214,-0.02944 -0.01767,0.01093 -0.02395,0.03312 -0.01394,0.04931 0.02711,0.04387 0.04609,0.03569 0.04609,-0.01987 z m -0.03163,-0.126513 c 0,-0.02712 -0.01447,-0.04037 -0.03214,-0.02944 -0.01767,0.01093 -0.02394,0.03312 -0.01394,0.04931 0.02711,0.04387 0.04609,0.03569 0.04609,-0.01987 z m -0.04415,-0.163523 c -0.03215,-0.03215 -0.05868,0.01624 -0.0323,0.05894 0.01992,0.03224 0.02738,0.03227 0.03809,1.27e-4 0.0073,-0.02199 0.0047,-0.04855 -0.0058,-0.05906 z m -4.254781,-0.592318 c -0.0222,-0.132482 -0.02667,-0.09788 -0.0264,0.204216 2.64e-4,0.337291 0.0021,0.348883 0.02673,0.15951 0.01453,-0.112318 0.01439,-0.275995 -2.65e-4,-0.363726 z m 4.235672,0.471186 c 0,-0.02712 -0.01447,-0.04037 -0.03214,-0.02944 -0.01767,0.01093 -0.02394,0.03311 -0.01394,0.04931 0.02711,0.04387 0.04609,0.03569 0.04609,-0.01987 z m -0.03163,-0.142324 c 0,-0.03582 -0.0136,-0.05671 -0.03025,-0.04643 -0.01664,0.01029 -0.02222,0.03959 -0.01243,0.06512 0.02508,0.06538 0.04268,0.05767 0.04268,-0.01871 z m -0.03163,-0.158142 c 0,-0.03582 -0.0136,-0.05671 -0.03025,-0.04643 -0.01664,0.01029 -0.02222,0.03959 -0.01244,0.06512 0.02508,0.06538 0.04268,0.05768 0.04268,-0.01871 z m -0.03163,-0.158141 c 0,-0.03582 -0.0136,-0.05671 -0.03025,-0.04643 -0.01664,0.01029 -0.02222,0.03959 -0.01243,0.06512 0.02508,0.06538 0.04268,0.05767 0.04268,-0.01871 z m -0.03163,-0.189767 c 0,-0.03582 -0.0136,-0.05671 -0.03025,-0.04643 -0.01664,0.01029 -0.02222,0.03959 -0.01244,0.06512 0.02508,0.06538 0.04268,0.05767 0.04268,-0.01871 z m -0.03163,-0.194228 c 0,-0.05109 -0.0093,-0.06023 -0.0352,-0.03439 -0.01937,0.01937 -0.02564,0.05067 -0.01394,0.06958 0.03272,0.05293 0.04915,0.04117 0.04915,-0.0352 z m -4.047098,-0.595866 c -0.02085,-0.143788 -0.02503,-0.11181 -0.02498,0.191027 5.5e-5,0.318235 0.0032,0.339833 0.02503,0.172696 0.01373,-0.105066 0.01371,-0.26874 -6.4e-5,-0.363723 z m 4.014985,0.388702 c -2.64e-4,-0.0633 -0.0082,-0.07484 -0.0287,-0.0424 -0.01553,0.02453 -0.0209,0.06366 -0.01196,0.08698 0.02566,0.06688 0.04117,0.04987 0.04065,-0.04458 z m -0.03114,-0.219816 c 0,-0.05874 -0.01019,-0.0752 -0.03267,-0.05273 -0.01796,0.01796 -0.02355,0.05639 -0.01243,0.0854 0.0293,0.07634 0.04509,0.0649 0.04509,-0.03267 z m -0.03163,-0.253026 c 0,-0.05874 -0.01019,-0.0752 -0.03266,-0.05273 -0.01797,0.01797 -0.02355,0.0564 -0.01244,0.0854 0.0293,0.07635 0.04509,0.0649 0.04509,-0.03267 z m -0.03163,-0.332094 c 0,-0.06519 -0.01088,-0.09032 -0.03059,-0.07062 -0.01683,0.01683 -0.02228,0.06237 -0.01212,0.101209 0.02606,0.09962 0.04272,0.08768 0.04272,-0.03059 z M 53.817715,47.2162 c -0.02342,-0.180552 -0.02609,-0.162391 -0.02622,0.178538 -1.3e-4,0.322934 0.0038,0.352909 0.02606,0.200998 0.01442,-0.09819 0.0145,-0.268986 1.56e-4,-0.379536 z m 3.856173,0.188026 c 0,-0.08965 -0.0104,-0.122428 -0.03202,-0.100814 -0.02822,0.02822 -0.0105,0.23365 0.02016,0.23365 0.0065,0 0.01185,-0.05978 0.01185,-0.132836 z m -0.0636,-0.712946 c -0.02831,-0.04446 -0.0319,-0.03023 -0.01789,0.0709 0.0096,0.06958 0.02024,0.162094 0.02358,0.205581 0.0033,0.04349 0.01138,0.01159 0.01788,-0.07089 0.0065,-0.08248 -0.0041,-0.174992 -0.02357,-0.205583 z M 53.84768,46.240469 c -0.02074,-0.177064 -0.0241,-0.150632 -0.0241,0.189611 -8e-6,0.326144 0.0042,0.362159 0.0241,0.20574 0.01326,-0.104285 0.01328,-0.282194 1.1e-5,-0.395351 z m 3.75398,-0.593185 c -0.0072,-0.04784 -0.01318,-0.0087 -0.01318,0.08698 0,0.09568 0.0059,0.134816 0.01318,0.08698 0.0072,-0.04784 0.0072,-0.126116 0,-0.173953 z m -3.720957,-0.37288 c -0.02336,-0.201591 -0.02553,-0.18682 -0.0258,0.175204 -2.46e-4,0.325351 0.0043,0.364329 0.02551,0.220147 0.01418,-0.09636 0.01431,-0.27427 2.64e-4,-0.395351 z m 0.03163,-0.980472 c -0.02336,-0.201591 -0.02553,-0.186819 -0.0258,0.175205 -2.46e-4,0.32535 0.0043,0.364328 0.02551,0.220146 0.01418,-0.09636 0.01431,-0.274269 2.65e-4,-0.395351 z m 3.726693,0.198925 c -0.0029,-0.179078 -0.0058,-0.187262 -0.03082,-0.08698 -0.02508,0.100661 -0.01167,0.284652 0.02077,0.284652 0.0073,0 0.01185,-0.08895 0.01005,-0.197675 z m 0.03215,-0.521865 c -0.0024,-0.129741 -0.0063,-0.138427 -0.02878,-0.06368 -0.0235,0.078 -0.01117,0.213916 0.01937,0.213916 0.0067,0 0.0109,-0.0676 0.0094,-0.150234 z m -3.727212,-0.657531 c -0.02336,-0.201589 -0.02553,-0.18682 -0.0258,0.175204 -2.47e-4,0.32535 0.0043,0.364329 0.0255,0.220147 0.01418,-0.09636 0.01431,-0.27427 2.65e-4,-0.395351 z m 3.760597,0.293809 c -7.93e-4,-0.08176 -0.0072,-0.09202 -0.03168,-0.05016 -0.01691,0.02895 -0.02207,0.0752 -0.01148,0.102791 0.02976,0.07754 0.0442,0.05992 0.04315,-0.05263 z m 0.03163,-0.300469 c -7.94e-4,-0.07461 -0.0056,-0.07907 -0.03334,-0.03138 -0.01781,0.03058 -0.02365,0.06972 -0.01299,0.08698 0.0327,0.05291 0.04733,0.03535 0.04633,-0.0556 z m 0.0321,-0.268838 c -2.64e-4,-0.05754 -0.0063,-0.06208 -0.03114,-0.02373 -0.03963,0.06132 -0.03963,0.09488 0,0.09488 0.01741,0 0.03141,-0.03202 0.03114,-0.07116 z M 53.97586,42.345469 c -0.02342,-0.180551 -0.02609,-0.16239 -0.02622,0.178538 -1.29e-4,0.322935 0.0038,0.35291 0.02606,0.200999 0.01442,-0.0982 0.0145,-0.268986 1.53e-4,-0.379537 z m 3.824544,0.461322 c 0,-0.02712 -0.01423,-0.04051 -0.03163,-0.02976 -0.01738,0.01074 -0.03163,0.03294 -0.03163,0.04931 0,0.01638 0.01423,0.02976 0.03163,0.02976 0.01741,0 0.03163,-0.0222 0.03163,-0.04931 z m 0.03163,-0.21953 c 0,-0.02609 -0.0056,-0.04744 -0.01243,-0.04744 -0.0068,0 -0.02061,0.02135 -0.03064,0.04744 -0.01,0.02609 -0.0044,0.04744 0.01244,0.04744 0.01685,0 0.03064,-0.02135 0.03064,-0.04744 z m 0.03114,-0.213489 c -2.65e-4,-0.05556 -0.0069,-0.06109 -0.02954,-0.02524 -0.01598,0.02527 -0.02204,0.05729 -0.01347,0.07116 0.02743,0.04439 0.0435,0.02722 0.043,-0.04593 z m 0.03211,-0.167913 c 0,-0.02712 -0.01447,-0.04037 -0.03214,-0.02944 -0.01767,0.01093 -0.02394,0.03312 -0.01394,0.04931 0.02711,0.04387 0.04609,0.03569 0.04609,-0.01987 z m 0.03163,-0.18977 c 0,-0.02712 -0.01423,-0.04051 -0.03163,-0.02976 -0.01741,0.01074 -0.03163,0.03294 -0.03163,0.04931 0,0.01638 0.01423,0.02976 0.03163,0.02976 0.01741,0 0.03163,-0.0222 0.03163,-0.04931 z M 54.00712,41.361672 c -0.02236,-0.171934 -0.02569,-0.146196 -0.02569,0.197678 0,0.343871 0.0033,0.36961 0.02569,0.197675 0.01413,-0.108722 0.01413,-0.286631 0,-0.395353 z m 3.951422,0.48233 c 0,-0.01741 -0.0063,-0.03163 -0.01394,-0.03163 -0.0077,0 -0.02275,0.01423 -0.03349,0.03163 -0.01074,0.01738 -0.0045,0.03163 0.01394,0.03163 0.01841,0 0.0335,-0.01423 0.0335,-0.03163 z m 0.03163,-0.158142 c 0,-0.01738 -0.0063,-0.03163 -0.01394,-0.03163 -0.0077,0 -0.02275,0.01423 -0.03349,0.03163 -0.01074,0.01738 -0.0045,0.03163 0.01394,0.03163 0.01841,0 0.0335,-0.01423 0.0335,-0.03163 z m 0.03163,-0.144192 c 0,-0.02712 -0.01447,-0.04037 -0.03214,-0.02944 -0.01767,0.01093 -0.02394,0.03312 -0.01394,0.04931 0.02711,0.04387 0.04609,0.03569 0.04609,-0.01987 z m 0.06326,-0.284652 c 0,-0.02712 -0.01447,-0.04037 -0.03214,-0.02944 -0.01767,0.01093 -0.02395,0.03312 -0.01394,0.04931 0.02711,0.04387 0.04609,0.03569 0.04609,-0.01987 z m 0.03163,-0.140462 c 0,-0.01738 -0.0063,-0.03163 -0.01394,-0.03163 -0.0077,0 -0.02275,0.01423 -0.03349,0.03163 -0.01074,0.01741 -0.0045,0.03163 0.01394,0.03163 0.01841,0 0.0335,-0.01423 0.0335,-0.03163 z m 0.03162,-0.126511 c 0,-0.01741 -0.0063,-0.03163 -0.01394,-0.03163 -0.0077,0 -0.02275,0.01423 -0.03349,0.03163 -0.01074,0.01738 -0.0045,0.03163 0.01394,0.03163 0.01842,0 0.03349,-0.01423 0.03349,-0.03163 z M 54.038748,40.3812 c -0.02236,-0.171934 -0.02569,-0.146196 -0.02569,0.197678 0,0.343871 0.0033,0.36961 0.02569,0.197676 0.01413,-0.108723 0.01413,-0.286631 0,-0.395354 z m 4.14119,0.48233 c 0,-0.01741 -0.0063,-0.03163 -0.01394,-0.03163 -0.0077,0 -0.02275,0.01423 -0.0335,0.03163 -0.01074,0.01741 -0.0045,0.03163 0.01394,0.03163 0.01841,0 0.03349,-0.01423 0.03349,-0.03163 z m 0.03163,-0.112564 c 0,-0.02712 -0.01447,-0.04037 -0.03214,-0.02944 -0.01768,0.01093 -0.02395,0.03312 -0.01394,0.04931 0.02711,0.04387 0.04609,0.03569 0.04609,-0.01987 z m 0.03163,-0.108834 c 0,-0.01738 -0.0063,-0.03163 -0.01394,-0.03163 -0.0077,0 -0.02275,0.01423 -0.0335,0.03163 -0.01074,0.01741 -0.0045,0.03163 0.01394,0.03163 0.01841,0 0.03349,-0.01423 0.03349,-0.03163 z m 0.03163,-0.112564 c 0,-0.02712 -0.01447,-0.04037 -0.03214,-0.02944 -0.01767,0.01093 -0.02394,0.03312 -0.01394,0.04931 0.02711,0.04387 0.04609,0.03569 0.04609,-0.01987 z m 0.03163,-0.108831 c 0,-0.01738 -0.0063,-0.03163 -0.01394,-0.03163 -0.0077,0 -0.02275,0.01423 -0.0335,0.03163 -0.01074,0.01741 -0.0045,0.03163 0.01394,0.03163 0.01842,0 0.03349,-0.01423 0.03349,-0.03163 z m 0.06326,-0.18977 c 0,-0.01738 -0.01508,-0.03163 -0.03349,-0.03163 -0.01841,0 -0.02471,0.01423 -0.01394,0.03163 0.01074,0.01741 0.02582,0.03163 0.0335,0.03163 0.0077,0 0.01394,-0.01423 0.01394,-0.03163 z m 0.03163,-0.09488 c 0,-0.01738 -0.01508,-0.03163 -0.0335,-0.03163 -0.01841,0 -0.02468,0.01423 -0.01394,0.03163 0.01074,0.01741 0.02582,0.03163 0.03349,0.03163 0.0077,0 0.01394,-0.01423 0.01394,-0.03163 z m 0.03163,-0.09488 c 0,-0.01738 -0.01508,-0.03163 -0.0335,-0.03163 -0.01841,0 -0.02469,0.01423 -0.01394,0.03163 0.01074,0.01738 0.02582,0.03163 0.03349,0.03163 0.0077,0 0.01394,-0.01423 0.01394,-0.03163 z M 54.07039,39.400738 c -0.02236,-0.171937 -0.02569,-0.146198 -0.02569,0.197675 0,0.343871 0.0033,0.36961 0.02569,0.197676 0.01413,-0.108723 0.01413,-0.286631 0,-0.395351 z m 4.394216,0.545584 c 0,-0.01738 -0.01508,-0.03163 -0.0335,-0.03163 -0.01841,0 -0.02469,0.01423 -0.01394,0.03163 0.01074,0.01741 0.02582,0.03163 0.03349,0.03163 0.0077,0 0.01394,-0.01423 0.01394,-0.03163 z m 0.06326,-0.18977 c 0,-0.01738 -0.0063,-0.03163 -0.01394,-0.03163 -0.0077,0 -0.02275,0.01423 -0.03349,0.03163 -0.01074,0.01738 -0.0045,0.03163 0.01394,0.03163 0.01842,0 0.0335,-0.01423 0.0335,-0.03163 z m 0.04406,-0.113284 c 0.02641,-0.06878 0.02461,-0.07648 -0.0177,-0.07648 -0.02029,0 -0.02753,0.0094 -0.01609,0.0208 0.01146,0.01146 0.0049,0.03991 -0.01442,0.06326 -0.02215,0.02669 -0.02331,0.04244 -0.0031,0.04244 0.01767,0 0.04076,-0.02252 0.05132,-0.05003 z m 0.06326,-0.158141 c 0.0264,-0.06878 0.02461,-0.07648 -0.0177,-0.07648 -0.02029,0 -0.02754,0.0094 -0.01609,0.02082 0.01146,0.01146 0.0049,0.03991 -0.01442,0.06325 -0.02215,0.02669 -0.02331,0.04245 -0.0031,0.04245 0.01767,0 0.04076,-0.02252 0.05132,-0.05003 z m 0.07737,-0.188669 c 0.04564,-0.100156 0.04562,-0.109212 -1.87e-4,-0.109212 -0.02029,0 -0.02736,0.0096 -0.01569,0.02119 0.01167,0.01167 -5.29e-4,0.05436 -0.02709,0.09488 -0.02655,0.04053 -0.03601,0.07369 -0.02101,0.07369 0.015,0 0.0438,-0.03625 0.06398,-0.08056 z m 0.125289,-0.284012 c 0.0797,-0.164039 0.08159,-0.173109 0.03606,-0.173109 -0.01841,0 -0.02468,0.01424 -0.01394,0.03163 0.01074,0.01741 0.0036,0.03163 -0.01582,0.03163 -0.01945,0 -0.02814,0.01167 -0.01931,0.02596 0.0088,0.01429 -0.01148,0.07121 -0.04511,0.126513 -0.03363,0.05531 -0.04996,0.100558 -0.03629,0.100558 0.01368,0 0.05616,-0.06443 0.09442,-0.143174 z m -4.734306,-0.569241 c -0.02458,-0.168745 -0.02752,-0.148336 -0.02748,0.190551 4.2e-5,0.340045 0.0029,0.359709 0.02752,0.188986 0.01556,-0.107947 0.01556,-0.272473 -4.7e-5,-0.379537 z m 21.092345,-0.346672 c 2.051984,-1.197909 2.941415,-1.729124 2.941415,-1.756768 0,-0.01281 -0.0249,-0.02876 -0.05535,-0.03543 -0.0714,-0.01564 -6.249855,0.03705 -6.266249,0.05344 -0.0068,0.0068 0.122372,0.158752 0.287062,0.337658 0.164688,0.178909 0.36848,0.410684 0.452866,0.515057 0.254466,0.314721 0.638554,0.923607 0.862979,1.368052 0.116427,0.230563 0.225917,0.413766 0.243313,0.407117 0.01738,-0.0066 0.707678,-0.406758 1.533962,-0.889127 z M 59.15064,38.388638 c 0.06609,-0.126119 0.236281,-0.403416 0.37819,-0.61622 0.146696,-0.219977 0.23167,-0.372811 0.196948,-0.354227 -0.03359,0.01797 -0.05265,0.0463 -0.04237,0.06295 0.01029,0.01664 -0.0035,0.0388 -0.03074,0.04924 -0.0272,0.01043 -0.04945,0.03925 -0.04945,0.06403 0,0.02477 -0.02127,0.05321 -0.04726,0.06318 -0.02598,0.01 -0.03932,0.03098 -0.02962,0.04668 0.0097,0.01569 -0.0045,0.03704 -0.03163,0.04744 -0.0271,0.0104 -0.04139,0.03165 -0.03177,0.04722 0.0096,0.01558 0.0024,0.02831 -0.01601,0.02831 -0.01842,0 -0.03349,0.02135 -0.03349,0.04744 0,0.02609 -0.01423,0.04744 -0.03163,0.04744 -0.01738,0 -0.03163,0.02135 -0.03163,0.04744 0,0.02609 -0.01508,0.04744 -0.03349,0.04744 -0.01841,0 -0.02469,0.01423 -0.01394,0.03163 0.01074,0.01738 0.0045,0.03163 -0.01394,0.03163 -0.01841,0 -0.0335,0.02032 -0.0335,0.04518 0,0.02484 -0.02087,0.06605 -0.04636,0.09155 -0.02551,0.02551 -0.06974,0.104794 -0.09832,0.176213 -0.02858,0.07142 -0.06548,0.129852 -0.08202,0.129852 -0.01654,0 -0.02201,0.01302 -0.01217,0.02893 0.0098,0.0159 -3e-6,0.03613 -0.02186,0.04494 -0.02869,0.01156 -0.02922,0.01672 -0.0019,0.01852 0.0208,0.0013 0.09189,-0.10069 0.157983,-0.226806 z m -5.017542,-0.86981 c -0.02307,-0.198093 -0.0249,-0.187277 -0.02529,0.15027 -2.65e-4,0.284856 0.0051,0.331139 0.02484,0.213453 0.01392,-0.08265 0.0141,-0.246322 5.29e-4,-0.363723 z m 5.727184,-0.218633 c 0.03936,-0.04771 0.03677,-0.04909 -0.02775,-0.01471 -0.0736,0.03922 -0.09172,0.06732 -0.04341,0.06732 0.01527,0 0.04729,-0.02368 0.07117,-0.05262 z m 0.109667,-0.141751 c 0.05993,-0.0675 0.05987,-0.06766 -0.0109,-0.03051 -0.03914,0.02053 -0.07116,0.05107 -0.07116,0.06786 0,0.04493 0.01513,0.03804 0.08207,-0.03734 z m -5.79687,-0.145632 c 0.01098,-0.09726 0.0063,-0.166047 -0.01138,-0.166047 -0.01656,0 -0.03014,0.08065 -0.03014,0.179226 0,0.216535 0.01614,0.21141 0.04152,-0.01318 z m 6.119924,-0.226935 c 0.125089,-0.137864 0.227435,-0.258842 0.227435,-0.268841 0,-0.01 -0.0222,-0.01818 -0.04931,-0.01818 -0.02712,0 -0.04095,0.01352 -0.03074,0.03004 0.01021,0.01654 -0.01029,0.04549 -0.04557,0.06437 -0.03528,0.01886 -0.06414,0.05421 -0.06414,0.0785 0,0.02429 -0.04287,0.0747 -0.09526,0.112004 -0.05239,0.03731 -0.0879,0.07973 -0.07891,0.09428 0.009,0.01455 -0.02286,0.05571 -0.07079,0.09146 -0.04793,0.03576 -0.07207,0.06546 -0.05364,0.06601 0.01842,5.29e-4 0.135842,-0.111795 0.260932,-0.249656 z m -6.003028,-0.13706 c 0.105238,-0.0127 0.104111,-0.01357 -0.024,-0.01839 -0.109024,-0.0041 -0.134329,0.0054 -0.133935,0.05029 2.65e-4,0.03631 0.0086,0.04263 0.024,0.01839 0.01294,-0.02032 0.0732,-0.04296 0.133935,-0.05029 z m 1.705006,-0.0434 c 0.0072,-0.0064 -0.341452,-0.0088 -0.77489,-0.0054 -0.632979,0.0051 -0.716489,0.01021 -0.424344,0.02614 0.343924,0.01876 1.170802,0.0044 1.199234,-0.02077 z m 1.960944,-0.03149 c 0.0072,-0.0065 -0.298754,-0.0092 -0.680006,-0.006 -0.499763,0.0042 -0.62258,0.01169 -0.440158,0.02688 0.240456,0.02003 1.092232,0.0042 1.120164,-0.02088 z m 1.773809,-0.01005 c 0.216069,-0.01897 0.150886,-0.02357 -0.332095,-0.02352 -0.350038,3.1e-5 -0.53491,0.0091 -0.442793,0.02175 0.214355,0.0294 0.453702,0.02994 0.774888,0.0019 z"
           id="path15291" /><path
           style="fill:#1a1a1a;fill-opacity:1;fill-rule:evenodd;stroke:#1a1a1a;stroke-width:0.0474573;stroke-linecap:round;stroke-linejoin:round;stroke-dasharray:none;stroke-opacity:1;paint-order:fill markers stroke"
           d="M 65.628347,61.891639 C 63.062572,61.689757 60.427504,60.954398 58.481846,59.89729 56.491348,58.815821 54.908399,57.363298 53.811029,55.611318 53.336314,54.853421 52.833537,53.756099 52.67612,53.134347 52.638809,52.986976 52.532015,52.61733 52.438799,52.312908 51.93399,50.664295 51.684684,49.576098 51.475383,48.10766 c -0.160325,-1.12481 -0.173167,-1.340977 -0.173892,-2.926892 -7.94e-4,-1.642303 0.01262,-1.826374 0.223893,-3.083743 0.262138,-1.560025 0.699172,-3.090267 1.33944,-4.689953 0.793421,-1.982343 1.255342,-2.777085 2.262158,-3.892098 1.603142,-1.775418 3.986617,-3.116347 6.800876,-3.826131 1.928778,-0.486458 3.88841,-0.693418 5.867017,-0.619623 4.3455,0.162068 7.915764,2.159622 9.991455,5.590193 0.438237,0.724287 0.793731,1.518039 0.793731,1.77224 0,0.07103 -0.0264,0.11533 -0.102791,0.172353 -0.166018,0.123954 -4.165668,2.461612 -4.710975,2.753402 -0.194796,0.104235 -0.254899,0.12351 -0.300468,0.09636 -0.03133,-0.01868 -0.186725,-0.284271 -0.345324,-0.590227 -0.487235,-0.939933 -0.902856,-1.519365 -1.503042,-2.095437 -0.46187,-0.443314 -0.796735,-0.680365 -1.339779,-0.948436 -0.786122,-0.388061 -1.741815,-0.68938 -2.767462,-0.872551 -0.555099,-0.09914 -2.246066,-0.127468 -2.77204,-0.04645 -2.104432,0.32417 -3.739168,1.352735 -4.877868,3.069127 -1.069957,1.612773 -1.713574,3.912087 -1.805993,6.451901 -0.04255,1.169453 0.0079,3.286554 0.092,3.858631 0.255505,1.738529 0.558977,2.781667 1.150165,3.953515 0.412295,0.817248 0.838824,1.400244 1.481719,2.025264 0.875689,0.851341 1.848387,1.37741 3.094787,1.673764 1.042413,0.247854 2.305087,0.270852 3.443848,0.06273 0.929513,-0.169884 1.854697,-0.465619 2.612935,-0.835226 0.934937,-0.455737 1.497994,-0.927878 2.143255,-1.797183 0.622427,-0.838541 1.192119,-2.011468 1.49707,-3.082282 0.08241,-0.289385 0.144346,-0.403362 0.219186,-0.403362 0.08666,0 0.709425,0.314306 3.462399,1.747454 1.517377,0.789921 1.726514,0.902938 1.771777,0.957476 0.04814,0.05801 0.02659,0.207817 -0.05905,0.410441 -0.03676,0.08698 -0.14686,0.371631 -0.244666,0.632563 -0.19822,0.52882 -0.625472,1.432494 -0.927409,1.961533 -0.30266,0.53031 -0.876583,1.374577 -1.257377,1.849655 -0.655399,0.817676 -1.612765,1.732359 -2.401864,2.294773 -1.765384,1.258247 -3.809222,1.991408 -6.034439,2.164665 -0.480166,0.03738 -1.972728,0.03469 -2.470309,-0.0045 z m -6.490544,-9.073173 c -0.0092,-0.03506 -0.03138,-0.07284 -0.04937,-0.08396 -0.01799,-0.01111 -0.02558,-0.0073 -0.01688,0.0084 0.0087,0.01574 0.02469,0.05351 0.03552,0.08396 0.02719,0.07639 0.05118,0.06983 0.03072,-0.0084 z m 16.178599,-0.03647 c 2.515473,-0.007 3.176836,-0.01929 3.152558,-0.05858 -0.0094,-0.01524 -0.240903,-0.144253 -0.514411,-0.286697 -0.273508,-0.142435 -0.653844,-0.34083 -0.845196,-0.440872 C 76.714196,51.78925 74.538567,50.672362 74.193984,50.4992 L 73.967,50.385138 73.89736,50.597855 c -0.156811,0.478975 -0.466982,1.223732 -0.712391,1.710547 l -0.260805,0.517358 0.09406,-0.01881 C 73.069954,52.7966 74.10414,52.78539 75.316403,52.782 Z M 74.858924,38.281379 c 2.486869,-1.448567 3.246715,-1.904587 3.246715,-1.94851 0,-0.03346 -4.811207,-0.01021 -5.792499,0.02799 l -0.494792,0.01926 0.197755,0.209595 c 0.611719,0.648345 0.963594,1.138587 1.376318,1.917515 0.197199,0.372176 0.248703,0.458607 0.273272,0.458607 0.01,0 0.546941,-0.308009 1.193231,-0.684464 z M 60.405962,36.639534 c 0.01079,-0.02815 0.0055,-0.04084 -0.01244,-0.02976 -0.0172,0.01064 -0.03127,0.03272 -0.03127,0.04908 0,0.0455 0.02267,0.03547 0.0437,-0.01931 z"
           id="path15293" /><path
           style="fill:#1a1a1a;fill-opacity:1;fill-rule:evenodd;stroke:#1a1a1a;stroke-width:0.0474573;stroke-linecap:round;stroke-linejoin:round;stroke-dasharray:none;stroke-opacity:1;paint-order:fill markers stroke"
           d="m 73.472367,38.562584 c -0.431332,-0.794946 -0.821102,-1.354 -1.308843,-1.877301 l -0.253678,-0.272174 0.733695,-0.02019 c 0.614249,-0.01691 3.947978,-0.03223 5.035119,-0.02312 l 0.316283,0.0026 -0.316283,0.194596 c -0.751774,0.462534 -3.961836,2.33557 -4.002767,2.33557 -0.01048,0 -0.102061,-0.153001 -0.203526,-0.340003 z"
           id="path15295" /><path
           style="fill:#1a1a1a;fill-opacity:1;fill-rule:evenodd;stroke:#1a1a1a;stroke-width:0.0474573;stroke-linecap:round;stroke-linejoin:round;stroke-dasharray:none;stroke-opacity:1;paint-order:fill markers stroke"
           d="m 73.240928,52.289188 c 0.254008,-0.531733 0.457026,-1.013814 0.629346,-1.494427 0.07866,-0.21938 0.133276,-0.328594 0.160925,-0.321776 0.100579,0.02479 4.193355,2.141508 4.257889,2.202098 0.04346,0.04081 -2.052344,0.08051 -4.253285,0.08059 l -1.017725,3.4e-5 z"
           id="path15297" /><path
           style="fill:#1a1a1a;fill-opacity:1;fill-rule:evenodd;stroke:#1a1a1a;stroke-width:0.0237286;stroke-linecap:round;stroke-linejoin:round;stroke-dasharray:none;stroke-opacity:1;paint-order:fill markers stroke"
           d="m 56.480394,40.764692 5.3e-4,-8.527732 0.201146,-0.149799 c 1.957859,-1.458058 4.443892,-2.411627 7.398602,-2.837884 1.649315,-0.237937 3.490169,-0.276688 4.908209,-0.10332 2.046753,0.250238 3.859003,0.902034 5.424223,1.950882 0.62399,0.418137 1.070927,0.783465 1.62638,1.329414 0.579118,0.569209 1.057389,1.148057 1.496494,1.811187 0.523378,0.790398 0.981562,1.715632 1.053137,2.126649 0.01884,0.108114 0.0065,0.159018 -0.05153,0.213395 -0.07938,0.07434 -2.972667,1.776447 -4.361695,2.565961 -0.654175,0.371829 -0.658498,0.373623 -0.738381,0.306406 -0.03177,-0.02673 -0.124158,-0.1856 -0.269812,-0.46396 -0.429275,-0.82041 -0.686916,-1.22554 -1.073639,-1.688256 -0.304821,-0.364726 -0.763566,-0.798238 -1.096793,-1.036474 -0.727393,-0.520036 -1.898454,-0.975106 -3.191161,-1.24007 -0.553564,-0.113461 -0.941604,-0.141372 -1.980038,-0.142415 -0.812028,-7.93e-4 -0.921319,0.0057 -1.328381,0.07946 -0.974373,0.176491 -1.868582,0.524442 -2.645341,1.029343 -1.138676,0.740154 -2.052981,1.859471 -2.682946,3.284538 -0.557348,1.260797 -0.919303,2.763858 -1.051597,4.366884 -0.05112,0.619427 -0.06057,1.025581 -0.05153,2.213967 0.0132,1.733706 0.04365,2.199585 0.202165,3.091649 0.02551,0.143512 0.0504,0.280503 0.05533,0.304421 l 0.009,0.04349 h -0.926378 -0.92638 z m 17.621314,-2.062167 c 1.731298,-0.996628 3.805721,-2.224278 3.928895,-2.325135 l 0.04341,-0.03554 -2.055829,0.0033 -2.055828,0.0033 2.021544,0.0041 c 1.477928,0.003 2.019964,0.0088 2.015667,0.0217 -0.0032,0.0097 -0.176387,0.121081 -0.384789,0.247518 -0.746559,0.45294 -3.428661,2.020998 -3.790257,2.21593 -0.178091,0.096 -0.1505,0.111313 -0.310618,-0.172344 -0.143235,-0.253757 -0.167889,-0.287214 -0.06409,-0.08698 0.100476,0.193828 0.202745,0.371631 0.213757,0.371631 0.0045,0 0.201666,-0.111377 0.43814,-0.247505 z m -0.764006,-0.353431 c -0.01775,-0.03479 -0.03583,-0.06326 -0.04018,-0.06326 -0.0043,0 0.0066,0.02847 0.02437,0.06326 0.01775,0.03479 0.03583,0.06326 0.04018,0.06326 0.0043,0 -0.0066,-0.02846 -0.02437,-0.06326 z m -0.07907,-0.142327 c -0.0093,-0.01738 -0.02048,-0.03163 -0.02484,-0.03163 -0.0043,0 -2.65e-4,0.01423 0.009,0.03163 0.0093,0.01741 0.02048,0.03163 0.02484,0.03163 0.0043,0 2.64e-4,-0.01423 -0.009,-0.03163 z m -0.72449,-1.071401 c -0.101303,-0.127434 -0.298571,-0.352444 -0.46569,-0.531178 -0.135432,-0.144846 -0.169987,-0.190428 -0.152673,-0.201387 0.01696,-0.01074 0.0136,-0.01423 -0.014,-0.01442 -0.05029,-2.65e-4 -0.04551,0.0061 0.2125,0.28653 0.122968,0.133649 0.275169,0.305266 0.338228,0.381371 0.112508,0.135784 0.174273,0.195617 0.08162,0.07907 z m -0.08598,-0.758838 c -0.04131,-0.0033 -0.108919,-0.0033 -0.150233,0 -0.04131,0.0033 -0.0075,0.0059 0.07512,0.0059 0.08263,0 0.116429,-0.0027 0.07511,-0.0059 z m 0.925123,-0.01601 c -0.106547,-0.0027 -0.280897,-0.0027 -0.387445,0 -0.106548,0.0027 -0.01937,0.005 0.193723,0.005 0.213095,0 0.30027,-0.0021 0.193722,-0.005 z"
           id="path16027" /><path
           style="fill:#1a1a1a;fill-opacity:1;fill-rule:evenodd;stroke:#1a1a1a;stroke-width:0.0237286;stroke-linecap:round;stroke-linejoin:round;stroke-dasharray:none;stroke-opacity:1;paint-order:fill markers stroke"
           d="m 56.479913,40.762099 v -8.530325 l 0.209373,-0.155548 c 1.316775,-0.978268 2.917253,-1.747965 4.700894,-2.260746 1.221523,-0.351173 2.571578,-0.595133 3.921887,-0.708694 1.038132,-0.08731 2.261679,-0.09349 3.170719,-0.01603 3.629485,0.309306 6.63938,1.906024 8.673282,4.601088 0.216662,0.287089 0.578131,0.835692 0.758995,1.151925 0.367665,0.642839 0.651594,1.286316 0.682095,1.545846 0.01418,0.12056 -0.0136,0.168265 -0.147076,0.252608 -0.591384,0.373714 -4.2569,2.512478 -4.744937,2.768587 -0.175001,0.09184 -0.217091,0.09563 -0.283099,0.02551 -0.0266,-0.02827 -0.145621,-0.234807 -0.264483,-0.458975 -0.481282,-0.907683 -0.753967,-1.324946 -1.180489,-1.80639 -0.268083,-0.302604 -0.634259,-0.643612 -0.929364,-0.865484 -0.711423,-0.534882 -1.986915,-1.032724 -3.308186,-1.291233 -0.548307,-0.107278 -1.008841,-0.134614 -2.095363,-0.124383 -0.602189,0.0057 -0.79176,0.01251 -0.917215,0.03308 -0.852146,0.139729 -1.525439,0.352086 -2.221875,0.700778 -0.692717,0.346832 -1.234496,0.744368 -1.782731,1.308095 -1.334614,1.372325 -2.210631,3.469896 -2.533632,6.066628 -0.09941,0.79924 -0.117845,1.20785 -0.114839,2.546062 0.0043,1.906696 0.03458,2.446102 0.186563,3.320954 0.03097,0.178303 0.06026,0.347316 0.06509,0.375584 l 0.0088,0.0514 h -0.927193 -0.927192 z m 17.237326,-1.845312 c 0.01905,-0.01363 0.01672,-0.01543 -0.01185,-0.0092 -0.01955,0.0043 -0.03955,0.0013 -0.04442,-0.0065 -0.0049,-0.0079 -0.01643,-0.01434 -0.02567,-0.01434 -0.01061,0 -0.0096,0.0088 0.0029,0.02373 0.02313,0.02786 0.04629,0.0297 0.07907,0.0063 z m 4.317238,-2.552356 c 0.01707,-0.02059 0.0095,-0.02339 -0.05737,-0.02119 -0.05756,0.0019 -0.06405,0.0042 -0.02566,0.0089 0.02827,0.0035 0.0514,0.01304 0.0514,0.02119 0,0.02096 0.0089,0.01844 0.03163,-0.0089 z"
           id="path16029" /><path
           style="fill:#1a1a1a;fill-opacity:1;fill-rule:evenodd;stroke:#1a1a1a;stroke-width:0.0237286;stroke-linecap:round;stroke-linejoin:round;stroke-dasharray:none;stroke-opacity:1;paint-order:fill markers stroke"
           d="m 56.480513,40.756784 5.3e-4,-8.535638 0.0587,-0.04153 c 0.03229,-0.02283 0.144097,-0.103725 0.24847,-0.179742 2.32592,-1.694051 5.3629,-2.681957 9.021921,-2.934764 0.321458,-0.02223 1.832891,-0.032 2.166527,-0.01405 2.834199,0.152614 5.292993,1.04962 7.274468,2.653842 0.627449,0.507989 1.271577,1.167567 1.793692,1.836708 0.495882,0.635522 0.999374,1.459699 1.304219,2.134899 0.176339,0.390573 0.243866,0.594419 0.24548,0.74104 0.0013,0.115046 5.29e-4,0.116954 -0.05668,0.166047 -0.147638,0.126495 -4.380802,2.604122 -4.863764,2.846711 -0.20742,0.104185 -0.230743,0.08925 -0.423122,-0.270852 -0.357759,-0.669671 -0.558514,-1.019953 -0.740883,-1.292698 -0.468694,-0.700974 -1.155073,-1.381961 -1.789166,-1.775111 -0.832419,-0.516115 -2.373746,-1.023678 -3.495407,-1.151043 -0.577882,-0.06562 -2.23928,-0.06063 -2.625135,0.0079 -1.443019,0.256236 -2.640992,0.830578 -3.61737,1.73427 -1.632376,1.510858 -2.638148,4.02145 -2.8754,7.177521 -0.04322,0.575011 -0.03191,3.196175 0.0167,3.866539 0.03011,0.415282 0.09011,0.870823 0.179676,1.363961 l 0.03662,0.201631 h -0.930365 -0.930365 z m 21.553964,-4.391419 c 0,-0.0038 -0.0071,-0.01138 -0.01582,-0.01675 -0.0087,-0.0054 -0.01582,-0.0021 -0.01582,0.007 0,0.0092 0.0071,0.01675 0.01582,0.01675 0.0087,0 0.01582,-0.0031 0.01582,-0.007 z"
           id="path16031" /><path
           style="fill:#1a1a1a;fill-opacity:1;fill-rule:evenodd;stroke:#1a1a1a;stroke-width:0.0118643;stroke-linecap:round;stroke-linejoin:round;stroke-dasharray:none;stroke-opacity:1;paint-order:fill markers stroke"
           d="m 78.142385,52.723578 c 0.132342,-0.0097 0.159067,-0.01558 0.168738,-0.03732 0.0043,-0.0096 0.0096,-0.01746 0.01185,-0.01741 0.0021,7.4e-5 0.02133,0.01029 0.04241,0.0227 l 0.03835,0.0226 -0.05021,0.0048 c -0.02762,0.0026 -0.108924,0.0064 -0.180679,0.0084 l -0.130466,0.0035 z"
           id="path16037" /><path
           style="fill:#1a1a1a;fill-opacity:1;fill-rule:evenodd;stroke:#1a1a1a;stroke-width:0.0118643;stroke-linecap:round;stroke-linejoin:round;stroke-dasharray:none;stroke-opacity:1;paint-order:fill markers stroke"
           d="m 73.962286,50.486032 c 0.01667,-0.0541 0.02296,-0.06248 0.0396,-0.05257 0.01519,0.009 0.01458,0.01069 -0.01487,0.0407 -0.02646,0.02695 -0.02987,0.02859 -0.02471,0.01185 z"
           id="path16769" /><path
           style="fill:#1a1a1a;fill-opacity:1;fill-rule:evenodd;stroke:#1a1a1a;stroke-width:0.396999;stroke-linecap:round;stroke-linejoin:round;stroke-dasharray:none;stroke-opacity:1;paint-order:fill markers stroke"
           d="m 73.993985,50.438944 c -0.0053,0.01582 -0.01177,0.03127 -0.01582,0.04744 -0.0092,0.03661 -0.02685,0.148304 -0.02371,0.110699 0.0058,-0.0691 0.01482,-0.138321 0.03162,-0.205584 0.0039,-0.01556 0.01508,0.0331 0.0079,0.04744 -0.101539,0.101536 -0.03874,0.02212 -0.07907,0.10279 -0.01214,0.02426 -0.02447,0.04859 -0.03953,0.07116 -0.03527,0.0529 -0.02964,0.02074 0,-0.02373 0.0062,-0.0093 0.01672,-0.015 0.02373,-0.02373 0.0037,-0.0046 0.0037,-0.01164 0.0079,-0.01582 0.01786,-0.01786 0.02373,0.04774 0.02373,0.06325 0,0.03427 0,0.06853 0,0.102793 0,0.0053 -0.0013,-0.01069 0,-0.01582 0.02521,-0.107116 0.01992,-0.08936 0.04744,-0.158141 0.0053,-0.01318 0.0095,-0.02684 0.01582,-0.03953 0.0011,-0.0024 7.94e-4,0.0054 0,0.0079 -0.0046,0.01603 -0.0077,0.03287 -0.01582,0.04744 -0.0054,0.0098 -0.01582,0.01582 -0.02371,0.02373 -0.0026,0.0026 -0.0062,0.01124 -0.0079,0.0079 -0.0035,-0.0071 -0.0024,-0.01619 0,-0.02373 0.01357,-0.04295 0.01558,-0.09467 0.04744,-0.126513 0.01688,-0.01688 0.01545,0.04852 0.0079,0.07116 -0.0021,0.0066 -0.07052,0.126354 -0.102791,0.134419 -0.0051,0.0013 -0.0011,-0.01064 0,-0.01582 0.0043,-0.02392 0.0071,-0.04848 0.01582,-0.07116 0.01164,-0.03029 0.05717,-0.05747 0.07907,-0.07116 0.0021,-0.0013 0.006,-0.0019 0.0079,0 0.04591,0.04591 -0.05018,0.160726 -0.07116,0.150233 -0.0085,-0.0043 -0.02037,-0.0069 -0.02373,-0.01582 -0.01167,-0.03113 0.0011,-0.19603 0.02373,-0.221398 0.02011,-0.0226 0.06118,-0.04098 0.06326,-0.03163 0.0052,0.02315 0,0.04744 0,0.07117 0,0.13058 0.0181,0.157382 -0.07116,0.253024 -0.02363,0.02532 -0.05935,0.03944 -0.06326,0.03163 -0.03462,-0.06925 0.05072,-0.195728 0.08698,-0.229303 0.0372,-0.03444 0.08865,-0.04937 0.134419,-0.07116 0.0074,-0.0035 0.05424,-0.01466 0.06326,-0.0079 0.0063,0.0047 0,0.01582 0,0.02373 0,0.0079 7.94e-4,0.01585 0,0.02373 -0.0095,0.0906 -0.0085,0.145069 -0.06326,0.21349 -0.02606,0.03256 -0.06037,0.0403 -0.06326,0.03163 -0.01783,-0.05353 0.02051,-0.157265 0.04744,-0.197675 0.04869,-0.07303 0.03953,-0.07116 0.07907,-0.07116 0.0026,0 0.0075,-0.0026 0.0079,0 0.01035,0.06215 -0.03781,0.116879 -0.07907,0.158141"
           id="path16941" /><path
           style="fill:#1a1a1a;fill-opacity:1;fill-rule:evenodd;stroke:#1a1a1a;stroke-width:0.396999;stroke-linecap:round;stroke-linejoin:round;stroke-dasharray:none;stroke-opacity:1;paint-order:fill markers stroke"
           d="m 73.155841,52.660819 c -0.02899,-0.01582 -0.06549,-0.02236 -0.08698,-0.04744 -0.0088,-0.01021 0.03763,-0.02122 0.03954,-0.0079 0.0033,0.02334 -0.02053,0.04246 -0.03163,0.06326 -0.02601,0.04878 -0.02963,0.06028 -0.07116,0.09488 -0.0021,0.0016 -0.0079,0.0026 -0.0079,0 0,-0.01863 0.0053,-0.0369 0.0079,-0.05535 0.0053,-0.0369 0.0065,-0.07462 0.01582,-0.110699 0.0092,-0.03554 0.02665,-0.06842 0.03954,-0.102791 0.0029,-0.0078 0.0059,-0.03181 0.0079,-0.02373 0.0045,0.01791 0.0032,0.03718 0,0.05535 -0.01267,0.07179 -0.03075,0.142528 -0.04744,0.21349 -0.0044,0.01868 -0.0079,0.03785 -0.01582,0.05535 -0.01595,0.03549 -0.03794,0.06799 -0.05535,0.102791 -0.0011,0.0024 -5.29e-4,0.0105 0,0.0079 0.03118,-0.155901 -0.0016,-0.02339 0.04744,-0.229304 0.0033,-0.01381 0.01439,-0.05366 0.01582,-0.03954 0.007,0.06974 -0.01069,0.228812 -0.01582,0.276746 -0.0037,0.03434 -0.02183,0.0843 -0.01582,0.06326 0.12697,-0.444397 0.0016,-0.05702 0.08698,-0.245118 0.01762,-0.03876 0.02944,-0.08002 0.04744,-0.118605 0.0011,-0.0024 0.0083,-0.0026 0.0079,0 -0.0053,0.03736 -0.0118,0.0749 -0.02373,0.110699 -0.0067,0.02016 -0.02212,0.03634 -0.03163,0.05535 -0.0011,0.0024 0,0.01056 0,0.0079 0,-0.06277 -0.0011,0.02228 0.02373,-0.142327 0.0016,-0.01042 0,-0.02109 0,-0.03163 0,-0.0026 0.0011,-0.01027 0,-0.0079 -0.05075,0.101505 -0.104635,0.201578 -0.173955,0.29256 -0.01355,0.01778 -0.05768,0.06732 -0.04744,0.04744 0.05465,-0.106085 0.120756,-0.20587 0.181862,-0.308375 0.02061,-0.03456 0.04094,-0.06931 0.06326,-0.102791 0.0094,-0.01405 0.03163,-0.05641 0.03163,-0.03953 0,0.03436 -0.09028,0.294429 -0.126513,0.300467 -0.02611,0.0044 -1.64e-4,-0.05384 0.0079,-0.07907 0.01042,-0.03259 0.105929,-0.21871 0.118605,-0.245118 0.01125,-0.02339 0.01828,-0.0489 0.03163,-0.07116 0.003,-0.0051 0.01582,-0.01381 0.01582,-0.0079 0,0.106465 -0.03071,0.196482 -0.07116,0.29256 -0.0069,0.0163 -0.01392,0.06215 -0.02373,0.04744 -0.01323,-0.01984 0.0041,-0.0476 0.0079,-0.07116 0.0068,-0.04237 0.01461,-0.08459 0.02373,-0.126513 0.0041,-0.01876 0.01117,-0.03674 0.01582,-0.05535 5.29e-4,-0.0026 0,-0.01056 0,-0.0079 0,0.01056 0.0013,0.02117 0,0.03163 -0.01511,0.113374 -0.02207,0.10043 -0.07116,0.229304 -0.0085,0.02228 -0.0098,0.03763 -0.01582,0.03163 -0.0075,-0.0075 0,-0.09678 0,-0.126513"
           id="path16943" /><path
           style="fill:#1a1a1a;fill-opacity:1;fill-rule:evenodd;stroke:#1a1a1a;stroke-width:0.396999;stroke-linecap:round;stroke-linejoin:round;stroke-dasharray:none;stroke-opacity:1;paint-order:fill markers stroke"
           d="m 77.3861,52.834772 c -0.10014,-0.200279 -0.0141,-0.110696 -0.355815,-0.110696 -0.01582,0 0.03163,0 0.04744,0 0.03953,0 0.07907,0 0.118605,0 0.01053,0 0.03908,-0.0075 0.03163,0 -0.0095,0.0095 -0.02627,0.0057 -0.03954,0.0079 -0.05001,0.0083 -0.100081,0.0163 -0.150233,0.02373 -0.07374,0.01093 -0.147532,0.02156 -0.221395,0.03163 -0.0052,7.94e-4 -0.02098,0.0011 -0.01582,0 0.252547,-0.05051 0.501171,-0.09657 0.759073,-0.110699 0.07895,-0.0043 0.158142,0 0.237212,0 0.01582,0 0.06175,-0.0067 0.04744,0 -0.210174,0.0989 -0.108212,0.03999 -0.363725,0.118605 -0.03275,0.01008 -0.06065,0.03817 -0.09488,0.03953 -0.03582,0.0013 -0.06815,-0.02238 -0.102791,-0.03163 -0.0051,-0.0013 -0.02096,0.0011 -0.01582,0 0.177615,-0.03947 0.363387,-0.06325 0.545587,-0.06325 0.0026,0 -0.0054,-7.94e-4 -0.0079,0 -0.02927,0.0098 -0.05771,0.02188 -0.08698,0.03163 -0.04863,0.01622 -0.124963,0.01582 -0.03163,0.01582 0.0079,0 -0.01582,0 -0.02373,0 -0.04217,0 -0.08438,0.0019 -0.126511,0 -0.01863,-7.94e-4 -0.03678,-0.0064 -0.05535,-0.0079 -0.0032,-2.64e-4 -0.04766,1.01e-4 -0.04744,0 0.10006,-0.04447 0.199162,-0.06022 0.308374,-0.06326 0.05533,-0.0016 0.1107,0 0.166048,0 0.0079,0 0.02373,0.0079 0.02373,0 0,-0.0053 -0.01056,0 -0.01582,0 -0.0079,0 -0.01582,0 -0.02373,0 -0.06589,0 -0.131784,0 -0.197676,0 -0.152868,0 -0.305736,0 -0.458607,0 -0.05008,0 -0.100156,0 -0.150234,0 -0.01582,0 -0.06326,0 -0.04744,0 0.210402,0 0.45507,-0.038 0.664192,-0.01582 0.09098,0.0097 0.179212,0.03696 0.268837,0.05535 0.01318,0.0027 0.05201,0.0029 0.03954,0.0079 -0.03883,0.01553 -0.265356,0.04458 -0.284655,0.04744 -0.07092,0.0105 -0.02363,0.0079 -0.09488,0.0079 -0.0053,0 -0.02085,0.0016 -0.01582,0 0.07734,-0.0232 0.245333,-0.0549 0.300469,-0.06325 0.04951,-0.0075 0.100156,0 0.150233,0 0.0026,0 0.01056,0 0.0079,0 -0.105264,0 -0.211722,0.01024 -0.316283,0.02373 -0.20117,0.02596 -0.104629,0.02373 -0.213489,0.02373 -0.0026,0 0.0054,7.94e-4 0.0079,0 0.02135,-0.0071 0.04173,-0.01709 0.06325,-0.02373 0.06343,-0.01953 0.132029,-0.014 0.197678,-0.02373 0.01897,-0.0028 0.03673,-0.01117 0.05535,-0.01582 0.01304,-0.0033 0.04904,-0.01741 0.03953,-0.0079 -0.04442,0.04443 -0.268994,0.03954 -0.05535,0.03954 0.175196,0 0.07716,0.0083 0.245118,-0.02373 0.01574,-0.003 0.03157,-0.0056 0.04744,-0.0079 0.0026,-2.64e-4 0.01056,0 0.0079,0 -0.03163,0 -0.06325,0 -0.09488,0 -0.07117,0 -0.142327,0 -0.21349,0 -0.03427,0 -0.06853,0 -0.102793,0 -0.01582,0 -0.03163,0 -0.04744,0 -0.0026,0 -0.0079,0.0026 -0.0079,0 0,-0.01664 0.16996,-0.0447 0.181861,-0.04744 0.01058,-0.0024 0.02098,-0.0058 0.03163,-0.0079 0.0026,-5.29e-4 0.0104,-7.94e-4 0.0079,0 -0.01032,0.0034 -0.02077,0.0073 -0.03163,0.0079 -0.03684,0.0021 -0.0738,0 -0.110696,0 -0.05685,0 -0.04486,-0.0013 -0.118608,0.0079 -0.0052,5.29e-4 0.01056,0 0.01582,0 0.05272,0 0.105429,0 0.158142,0 0.02122,0 0.2017,0.0089 0.237212,0 0.03796,-0.0095 0.07137,-0.01717 0.110696,-0.02373 0.0538,-0.009 0.118185,-0.03163 0.173956,-0.03163 0.0053,0 -0.01056,0 -0.01582,0 -0.02635,0 -0.05271,0 -0.07907,0 -0.01582,0 -0.03163,0 -0.04744,0 -0.0053,0 -0.01582,-0.0053 -0.01582,0 0,0.0059 0.0109,0.0046 0.01582,0.0079 0.0703,0.04687 0.09991,0.06326 0.18977,0.06326 0.0053,0 -0.01056,0 -0.01582,0 -0.01582,0 -0.03168,-0.0013 -0.04744,0 -0.02773,0.0024 -0.098,0.01897 -0.118605,0.02373 -0.01058,0.0024 -0.02098,0.0058 -0.03163,0.0079 -0.0026,5.29e-4 -0.0079,-0.0026 -0.0079,0 0,0.0062 0.08161,-0.01378 0.09488,-0.01582 0.0236,-0.0036 0.04751,-0.0048 0.07116,-0.0079 0.0159,-0.0021 0.03157,-0.0056 0.04744,-0.0079 0.0026,-2.64e-4 0.0079,0.0026 0.0079,0 0,-0.01767 -0.08124,-0.01855 -0.102791,-0.02373 -0.292394,-0.07017 -0.06551,-0.0085 -0.458608,-0.142327 -0.09082,-0.03092 -0.185261,-0.05018 -0.276746,-0.07907 -0.05688,0.02598 -0.07821,-0.03398 -0.118607,-0.04744 -0.01032,-0.0034 -0.0217,-0.0035 -0.03163,-0.0079 -0.01942,-0.0086 -0.0346,-0.02702 -0.05535,-0.03163 -0.0182,-0.004 -0.03795,-0.0013 -0.05535,-0.0079 -0.01773,-0.0068 -0.03083,-0.02238 -0.04744,-0.03163 -0.02186,-0.01214 -0.0484,-0.01336 -0.07117,-0.02371 -0.03488,-0.01585 -0.05566,-0.04446 -0.08698,-0.06326 -0.0071,-0.0043 -0.01648,-0.0038 -0.02373,-0.0079 -0.02477,-0.01416 -0.04926,-0.02919 -0.07117,-0.04744 -0.0045,-0.0038 -0.0037,-0.01164 -0.0079,-0.01582 -0.05165,-0.05165 0.02524,0.04737 -0.03163,-0.02373 -0.01646,-0.02059 -0.03098,-0.04268 -0.04744,-0.06326 -0.0047,-0.0058 -0.0122,-0.0093 -0.01582,-0.01582 -0.07514,-0.175318 0.0085,7.94e-4 -0.03953,-0.07116 -0.0075,-0.01119 -0.0032,-0.02695 -0.0079,-0.03953 -0.0054,-0.01439 -0.01887,-0.02495 -0.02371,-0.03954 -0.0016,-0.005 0.0016,-0.01082 0,-0.01582 -0.0063,-0.01876 -0.04623,-0.04501 -0.05535,-0.06326 -0.0011,-0.0024 0.0053,0 0.0079,0 0.02899,0 0.05798,0 0.08698,0 0.01582,0 0.03186,-0.0027 0.04744,0 0.135035,0.02328 0.273534,0.06092 0.395351,0.126513 0.03347,0.01802 0.06229,0.0437 0.09488,0.06326 0.0071,0.0043 0.01643,0.0039 0.02373,0.0079 0.03641,0.02021 0.06802,0.04152 0.102793,0.06325 0.015,0.0094 0.03273,0.01392 0.04744,0.02373 0.01479,0.0099 0.05136,0.08299 0.07116,0.102791 0.05814,0.05814 0.123007,0.120806 0.197675,0.158141 0.01939,0.0097 0.05105,0.01365 0.07116,0.02373 0.025,0.01249 0.0587,0.03146 0.08698,0.03954 0.02119,0.0061 0.05022,0.0011 0.07116,0.0079 0.02297,0.0076 0.01103,0.0083 0.03163,0.02373 0.04071,0.03053 0.0898,0.07257 0.134419,0.09488 0.0691,0.03455 0.02283,-0.0088 0.04744,0.01582"
           id="path16945" /></g><rect
         style="fill:#1a1a1a;fill-opacity:1;fill-rule:evenodd;stroke:#1a1a1a;stroke-width:0.396999;stroke-linecap:round;stroke-linejoin:round;stroke-dasharray:none;stroke-opacity:1;paint-order:fill markers stroke"
         id="rect2393"
         width="6.0831327"
         height="23.974699"
         x="79.483284"
         y="37.214458"
         rx="0" /><path
         style="fill:#1a1a1a;fill-opacity:1;fill-rule:evenodd;stroke:#1a1a1a;stroke-width:0.502183;stroke-linecap:round;stroke-linejoin:round;stroke-dasharray:none;stroke-opacity:1;paint-order:fill markers stroke"
         id="path2395"
         sodipodi:type="arc"
         sodipodi:cx="82.591942"
         sodipodi:cy="31.019505"
         sodipodi:rx="3.5928133"
         sodipodi:ry="3.5928133"
         sodipodi:start="4.7271381"
         sodipodi:end="4.7269511"
         sodipodi:arc-type="arc"
         d="m 82.644931,27.427082 a 3.5928133,3.5928133 0 0 1 3.539436,3.645244 3.5928133,3.5928133 0 0 1 -3.645078,3.539606 3.5928133,3.5928133 0 0 1 -3.539777,-3.644913 3.5928133,3.5928133 0 0 1 3.644747,-3.539947"
         sodipodi:open="true" /><g
         id="g5307"
         style="fill:#1a1a1a;stroke:#1a1a1a"><g
           id="g18594"
           style="fill:#1a1a1a;stroke:#1a1a1a"><rect
             style="fill:#1a1a1a;fill-opacity:1;fill-rule:evenodd;stroke:#1a1a1a;stroke-width:0.396999;stroke-linecap:round;stroke-linejoin:round;stroke-dasharray:none;stroke-opacity:1;paint-order:fill markers stroke"
             id="rect3849"
             width="6.0831327"
             height="23.974699"
             x="88.695175"
             y="37.214458"
             rx="0" /><path
             style="fill:#1a1a1a;fill-opacity:1;fill-rule:evenodd;stroke:#1a1a1a;stroke-width:0.396999;stroke-linecap:round;stroke-linejoin:round;stroke-dasharray:none;stroke-opacity:1;paint-order:fill markers stroke"
             d="m 94.811735,47.591567 c 0,0 0.418245,-3.369583 2.560791,-4.473589 2.142546,-1.104006 4.998454,0.09015 4.998454,0.09015 l 1.25241,-5.36747 c 0,0 -2.77138,-1.249894 -5.143564,-0.343848 -2.372129,0.906045 -3.936464,3.698516 -3.936464,3.698516"
             id="path4577"
             sodipodi:nodetypes="czcczc" /></g><rect
           style="fill:#1a1a1a;fill-opacity:1;fill-rule:evenodd;stroke:#1a1a1a;stroke-width:0.396999;stroke-linecap:round;stroke-linejoin:round;stroke-dasharray:none;stroke-opacity:1;paint-order:fill markers stroke"
           id="rect17864"
           width="0.17395465"
           height="0.047442179"
           x="95.35878"
           y="41.211437" /></g><path
         style="fill:#1a1a1a;fill-opacity:1;fill-rule:evenodd;stroke:#1a1a1a;stroke-width:0.396999;stroke-linecap:round;stroke-linejoin:round;stroke-dasharray:none;stroke-opacity:1;paint-order:fill markers stroke"
         d="m 120.67861,43.834338 c 0,0 -1.84052,-4.209317 -6.61987,-3.757229 -4.77936,0.452088 -6.03841,3.757229 -6.03841,3.757229 0,0 -1.20206,2.217314 -1.07349,5.501656 0.12856,3.284342 0.80512,5.099096 0.80512,5.099096 0,0 2.43261,4.317374 7.01482,4.041143 4.5822,-0.276231 6.26966,-4.801536 6.26966,-4.801536 l 2.81793,1.744429 c 0,0 -3.75692,7.315157 -10.91386,6.127862 -7.15694,-1.187296 -8.63268,-6.440964 -8.63268,-6.440964 0,0 -1.07867,-2.816409 -1.16295,-6.038403 -0.0843,-3.221995 1.29714,-6.127863 1.29714,-6.127863 0,0 1.91132,-5.393398 9.25842,-5.8693 7.3471,-0.475901 9.66191,4.974722 9.66191,4.974722 z"
         id="path6833"
         sodipodi:nodetypes="czczczcczczczcc" /><path
         style="fill:#1a1a1a;fill-opacity:1;fill-rule:evenodd;stroke:#1a1a1a;stroke-width:0.396999;stroke-linecap:round;stroke-linejoin:round;stroke-dasharray:none;stroke-opacity:1;paint-order:fill markers stroke"
         d="m 125.41988,27.776656 h 3.57831 l 0.17892,28.894879 c 0,0 0.36752,1.380657 1.69827,1.70324 1.33075,0.322583 2.19314,-0.137727 2.19314,-0.137727 l 0.53675,2.862651 c 0,0 -1.91499,0.585242 -4.79639,0.07023 -2.8814,-0.515016 -3.21009,-3.335437 -3.21009,-3.335437 z"
         id="path9739"
         sodipodi:nodetypes="ccczcczcc" /><g
         id="g18598"
         style="fill:#1a1a1a;stroke:#1a1a1a"><path
           style="fill:#1a1a1a;fill-opacity:1;fill-rule:evenodd;stroke:#1a1a1a;stroke-width:0.396999;stroke-linecap:round;stroke-linejoin:round;stroke-dasharray:none;stroke-opacity:1;paint-order:fill markers stroke"
           d="m 151.22846,54.569277 2.59428,1.565511 c 0,0 -2.88451,6.048771 -10.37711,5.412199 -7.4926,-0.636573 -8.63268,-5.412199 -8.63268,-5.412199 0,0 -1.61304,-2.791952 -1.61024,-6.575149 0.003,-3.783197 1.61024,-7.022439 1.61024,-7.022439 0,0 1.5666,-4.99317 8.85633,-5.501657 7.28972,-0.508486 9.57198,5.501657 9.57198,5.501657 0,0 0.66622,2.502267 0.70275,3.757772 0.0365,1.255505 -0.38965,3.667227 -0.38965,3.667227 h -16.37078 c 0,0 -1.12566,5.873458 4.98478,8.124817 6.11044,2.25136 9.0601,-3.517739 9.0601,-3.517739 z"
           id="path10467"
           sodipodi:nodetypes="cczczczczcczc" /><path
           style="fill:#ffffff;fill-opacity:1;fill-rule:evenodd;stroke:#1a1a1a;stroke-width:0.396999;stroke-linecap:round;stroke-linejoin:round;stroke-dasharray:none;stroke-opacity:1;paint-order:fill markers stroke"
           d="m 150.37861,47.144275 c 0,0 0.44362,-7.771789 -6.53042,-7.246084 -6.97403,0.525704 -6.61988,7.246084 -6.61988,7.246084 z"
           id="path11921"
           sodipodi:nodetypes="czc" /></g></g></g></svg>
