<?xml version="1.0" encoding="UTF-8" standalone="no"?>
<!-- Created with Inkscape (http://www.inkscape.org/) -->

<svg
   width="102.88665mm"
   height="101.4842mm"
   viewBox="0 0 102.88665 101.4842"
   version="1.1"
   id="svg5"
   xml:space="preserve"
   inkscape:version="1.2.1 (9c6d41e410, 2022-07-14)"
   sodipodi:docname="logo-light.svg"
   xmlns:inkscape="http://www.inkscape.org/namespaces/inkscape"
   xmlns:sodipodi="http://sodipodi.sourceforge.net/DTD/sodipodi-0.dtd"
   xmlns="http://www.w3.org/2000/svg"
   xmlns:svg="http://www.w3.org/2000/svg"><sodipodi:namedview
     id="namedview7"
     pagecolor="#ffffff"
     bordercolor="#000000"
     borderopacity="0.25"
     inkscape:showpageshadow="2"
     inkscape:pageopacity="0.0"
     inkscape:pagecheckerboard="0"
     inkscape:deskcolor="#d1d1d1"
     inkscape:document-units="mm"
     showgrid="false"
     inkscape:zoom="2.0913616"
     inkscape:cx="144.16445"
     inkscape:cy="158.50917"
     inkscape:window-width="1920"
     inkscape:window-height="991"
     inkscape:window-x="-9"
     inkscape:window-y="-9"
     inkscape:window-maximized="1"
     inkscape:current-layer="g21604" /><defs
     id="defs2" /><g
     inkscape:label="Layer 1"
     inkscape:groupmode="layer"
     id="layer1"
     transform="translate(-51.258151,6.8474286)"><g
       id="g1613"
       style="fill:#333333"><g
         id="g13383"
         style="fill:#333333;stroke:#1a1a1a"><path
           style="fill:#333333;fill-opacity:1;fill-rule:evenodd;stroke:#1a1a1a;stroke-width:0.179366;stroke-linecap:round;stroke-linejoin:round;stroke-dasharray:none;stroke-opacity:1;paint-order:fill markers stroke"
           d=""
           id="path15289"
           transform="scale(0.26458333)" /><path
           style="fill:#333333;fill-opacity:1;fill-rule:evenodd;stroke:#1a1a1a;stroke-width:0.126831;stroke-linecap:round;stroke-linejoin:round;stroke-dasharray:none;stroke-opacity:1;paint-order:fill markers stroke"
           d=""
           id="path16033"
           transform="scale(0.26458333)" /><path
           style="fill:#333333;fill-opacity:1;fill-rule:evenodd;stroke:#1a1a1a;stroke-width:0.126831;stroke-linecap:round;stroke-linejoin:round;stroke-dasharray:none;stroke-opacity:1;paint-order:fill markers stroke"
           d=""
           id="path16035"
           transform="scale(0.26458333)" /><path
           style="fill:#333333;fill-opacity:1;fill-rule:evenodd;stroke:#1a1a1a;stroke-width:0.0448414;stroke-linecap:round;stroke-linejoin:round;stroke-dasharray:none;stroke-opacity:1;paint-order:fill markers stroke"
           d=""
           id="path16039"
           transform="scale(0.26458333)" /><path
           style="fill:#333333;fill-opacity:1;fill-rule:evenodd;stroke:#1a1a1a;stroke-width:0.0448414;stroke-linecap:round;stroke-linejoin:round;stroke-dasharray:none;stroke-opacity:1;paint-order:fill markers stroke"
           d=""
           id="path16041"
           transform="scale(0.26458333)" /><path
           style="fill:#333333;fill-opacity:1;fill-rule:evenodd;stroke:#1a1a1a;stroke-width:0.0448414;stroke-linecap:round;stroke-linejoin:round;stroke-dasharray:none;stroke-opacity:1;paint-order:fill markers stroke"
           d=""
           id="path16771"
           transform="scale(0.26458333)" /><g
           id="g17696"
           style="fill:#333333" /></g></g><g
       id="g21604"
       transform="matrix(0.89671111,0,0,0.89671111,10.607922,4.5338317)"><g
         id="g416"
         style="fill:#808080;stroke:#808080;stroke-opacity:1"
         transform="translate(-7.5907496,-93.065268)"><path
           style="fill:#808080;fill-rule:evenodd;stroke:#808080;stroke-width:0.396875;stroke-linecap:round;stroke-linejoin:round;paint-order:fill markers stroke;stroke-opacity:1"
           d="m 93.57289,187.50361 -14.492169,-70.31385 9.303616,-5.7253 47.949393,39.89819 -12.88192,-60.652409 6.97771,-4.293976 14.67108,70.313855 -8.94578,5.18855 -15.56567,-12.16626 -24.332525,14.67108 4.115065,18.78615 z"
           id="path356" /><path
           style="fill:#1a1a1a;fill-rule:evenodd;stroke:#808080;stroke-width:0.396875;stroke-linecap:round;stroke-linejoin:round;paint-order:fill markers stroke;stroke-opacity:1"
           d="M 94.947614,157.19175 115.75892,144.92004 87.862914,121.57849 Z"
           id="path412" /></g><g
         id="g18647"
         style="fill:none;stroke:#ffffff;stroke-width:1.11519;stroke-dasharray:none"
         transform="translate(-2.5137505)"><g
           id="g1538"
           style="fill:none;stroke:#ffffff;stroke-width:1.11519;stroke-dasharray:none"><path
             style="fill:none;fill-rule:evenodd;stroke:#ffffff;stroke-width:1.11519;stroke-linecap:round;stroke-linejoin:round;stroke-dasharray:none;paint-order:fill markers stroke"
             d="m 78.365061,36.27515 c 0,0 -2.550933,-7.811321 -12.837199,-6.977711 -10.286267,0.83361 -12.100761,7.32562 -12.100761,7.32562"
             id="path684"
             sodipodi:nodetypes="czc" /><g
             id="g1543"
             style="fill:none;stroke:#ffffff;stroke-width:1.11519;stroke-dasharray:none"><path
               style="fill:none;fill-rule:evenodd;stroke:#ffffff;stroke-width:1.11519;stroke-linecap:round;stroke-linejoin:round;stroke-dasharray:none;paint-order:fill markers stroke"
               d="m 78.81235,52.762862 c 0,0 -2.640391,10.003038 -13.508133,8.901054 C 54.436475,60.561933 52.82485,52.941778 52.82485,52.941778"
               id="path1420"
               sodipodi:nodetypes="czc" /><path
               style="fill:none;fill-opacity:1;fill-rule:evenodd;stroke:#ffffff;stroke-width:1.11519;stroke-linecap:round;stroke-linejoin:round;stroke-dasharray:none;stroke-opacity:1;paint-order:fill markers stroke"
               d="m 53.562876,54.63637 c 0,0 -2.122918,-4.200682 -2.106126,-9.599667 0.01679,-5.398986 2.732136,-9.971561 2.732136,-9.971561"
               id="path1534"
               sodipodi:nodetypes="czc" /></g></g><path
           style="fill:none;fill-opacity:1;fill-rule:evenodd;stroke:#ffffff;stroke-width:1.11519;stroke-linecap:round;stroke-linejoin:round;stroke-dasharray:none;stroke-opacity:1;paint-order:fill markers stroke"
           d="m 73.503749,39.218867 c 0,0 -0.934761,-2.673866 -3.44757,-3.743915 -4.54366,-1.934861 -12.155587,-1.38741 -12.26234,10.042215 -0.106157,11.365876 7.688377,12.123538 12.454525,9.725262 2.646463,-1.331673 3.571666,-5.080232 3.571666,-5.080232"
           id="path1599"
           sodipodi:nodetypes="csssc" /><path
           style="fill:none;fill-opacity:1;fill-rule:evenodd;stroke:#ffffff;stroke-width:1.11519;stroke-linecap:round;stroke-linejoin:round;stroke-dasharray:none;stroke-opacity:1;paint-order:fill markers stroke"
           d="m 73.535378,39.282123 4.87073,-2.84653"
           id="path1601" /><path
           style="fill:none;fill-opacity:1;fill-rule:evenodd;stroke:#ffffff;stroke-width:1.11519;stroke-linecap:round;stroke-linejoin:round;stroke-dasharray:none;stroke-opacity:1;paint-order:fill markers stroke"
           d="m 73.82003,50.067313 5.0605,2.625135"
           id="path1603" /><path
           style="fill:none;fill-opacity:1;fill-rule:evenodd;stroke:#ffffff;stroke-width:1.11519;stroke-linecap:round;stroke-linejoin:round;stroke-dasharray:none;stroke-opacity:1;paint-order:fill markers stroke"
           d="M 65.628347,61.891639 C 63.062572,61.689757 60.427504,60.954398 58.481846,59.89729 56.491348,58.815821 54.908399,57.363298 53.811029,55.611318 53.336314,54.853421 52.833537,53.756099 52.67612,53.134347 52.638809,52.986976 52.532015,52.61733 52.438799,52.312908 51.93399,50.664295 51.684684,49.576098 51.475383,48.10766 c -0.160325,-1.12481 -0.173167,-1.340977 -0.173892,-2.926892 -7.94e-4,-1.642303 0.01262,-1.826374 0.223893,-3.083743 0.262138,-1.560025 0.699172,-3.090267 1.33944,-4.689953 0.793421,-1.982343 1.255342,-2.777085 2.262158,-3.892098 1.603142,-1.775418 3.986617,-3.116347 6.800876,-3.826131 1.928778,-0.486458 3.88841,-0.693418 5.867017,-0.619623 4.3455,0.162068 7.915764,2.159622 9.991455,5.590193 0.438237,0.724287 0.793731,1.518039 0.793731,1.77224 0,0.07103 -0.0264,0.11533 -0.102791,0.172353 -0.166018,0.123954 -4.165668,2.461612 -4.710975,2.753402 -0.194796,0.104235 -0.254899,0.12351 -0.300468,0.09636 -0.03133,-0.01868 -0.186725,-0.284271 -0.345324,-0.590227 -0.487235,-0.939933 -0.902856,-1.519365 -1.503042,-2.095437 -0.46187,-0.443314 -0.796735,-0.680365 -1.339779,-0.948436 -0.786122,-0.388061 -1.741815,-0.68938 -2.767462,-0.872551 -0.555099,-0.09914 -2.246066,-0.127468 -2.77204,-0.04645 -2.104432,0.32417 -3.739168,1.352735 -4.877868,3.069127 -1.069957,1.612773 -1.713574,3.912087 -1.805993,6.451901 -0.04255,1.169453 0.0079,3.286554 0.092,3.858631 0.255505,1.738529 0.558977,2.781667 1.150165,3.953515 0.412295,0.817248 0.838824,1.400244 1.481719,2.025264 0.875689,0.851341 1.848387,1.37741 3.094787,1.673764 1.042413,0.247854 2.305087,0.270852 3.443848,0.06273 0.929513,-0.169884 1.854697,-0.465619 2.612935,-0.835226 0.934937,-0.455737 1.497994,-0.927878 2.143255,-1.797183 0.622427,-0.838541 1.192119,-2.011468 1.49707,-3.082282 0.08241,-0.289385 0.144346,-0.403362 0.219186,-0.403362 0.08666,0 0.709425,0.314306 3.462399,1.747454 1.517377,0.789921 1.726514,0.902938 1.771777,0.957476 0.04814,0.05801 0.02659,0.207817 -0.05905,0.410441 -0.03676,0.08698 -0.14686,0.371631 -0.244666,0.632563 -0.19822,0.52882 -0.625472,1.432494 -0.927409,1.961533 -0.30266,0.53031 -0.876583,1.374577 -1.257377,1.849655 -0.655399,0.817676 -1.612765,1.732359 -2.401864,2.294773 -1.765384,1.258247 -3.809222,1.991408 -6.034439,2.164665 -0.480166,0.03738 -1.972728,0.03469 -2.470309,-0.0045 z m -6.490544,-9.073173 c -0.0092,-0.03506 -0.03138,-0.07284 -0.04937,-0.08396 -0.01799,-0.01111 -0.02558,-0.0073 -0.01688,0.0084 0.0087,0.01574 0.02469,0.05351 0.03552,0.08396 0.02719,0.07639 0.05118,0.06983 0.03072,-0.0084 z m 17.571813,-1.270964 c 2.217349,1.187863 1.783622,1.215204 1.759344,1.175914 -0.0094,-0.01524 -0.240903,-0.144253 -0.514411,-0.286697 -0.273508,-0.142435 -0.653844,-0.34083 -0.845196,-0.440872 C 76.714196,51.78925 74.538567,50.672362 74.193984,50.4992 L 73.967,50.385138 73.89736,50.597855 c -0.156811,0.478975 -0.466982,1.223732 -0.712391,1.710547 l -0.260805,0.517358 0.09406,-0.01881 c 0.05173,-0.01035 0.153816,-3.154573 1.222406,-2.582115 z M 74.858924,38.281379 c 2.486869,-1.448567 3.377653,-1.751826 3.377653,-1.795749 0,-0.02061 -3.964863,2.948301 -4.652719,2.515112 -0.126003,-0.07935 -1.711856,-2.232623 -1.713413,-2.234549 l -0.251624,-0.311202 0.110463,0.459 c -0.152403,-0.63327 1.163118,1.063765 1.575842,1.842693 0.197199,0.372176 0.335995,0.209202 0.360564,0.209202 0.01,0 0.546941,-0.308009 1.193231,-0.684464 z"
           id="path15293"
           sodipodi:nodetypes="cssssscssssssscsssssscsscssssssssssssssssccssccssssssscsscssssssccsssss" /><path
           style="fill:none;fill-opacity:1;fill-rule:evenodd;stroke:#ffffff;stroke-width:1.11519;stroke-linecap:round;stroke-linejoin:round;stroke-dasharray:none;stroke-opacity:1;paint-order:fill markers stroke"
           d="m 73.962286,50.486032 c 0.01667,-0.0541 0.02296,-0.06248 0.0396,-0.05257 0.01519,0.009 0.01458,0.01069 -0.01487,0.0407 -0.02646,0.02695 -0.02987,0.02859 -0.02471,0.01185 z"
           id="path16769" /></g><rect
         style="fill:none;fill-opacity:1;fill-rule:evenodd;stroke:#ffffff;stroke-width:1.11518636;stroke-linecap:round;stroke-linejoin:round;stroke-dasharray:none;stroke-opacity:1;paint-order:fill markers stroke"
         id="rect2393"
         width="6.0831327"
         height="23.974699"
         x="79.483284"
         y="37.214458"
         rx="0" /><path
         style="fill:none;fill-opacity:1;fill-rule:evenodd;stroke:#ffffff;stroke-width:1.11518636;stroke-linecap:round;stroke-linejoin:round;stroke-dasharray:none;stroke-opacity:1;paint-order:fill markers stroke"
         id="path2395"
         sodipodi:type="arc"
         sodipodi:cx="82.591942"
         sodipodi:cy="31.019505"
         sodipodi:rx="3.5928133"
         sodipodi:ry="3.5928133"
         sodipodi:start="4.7271381"
         sodipodi:end="4.7269511"
         sodipodi:arc-type="arc"
         d="m 82.644931,27.427082 a 3.5928133,3.5928133 0 0 1 3.539436,3.645244 3.5928133,3.5928133 0 0 1 -3.645078,3.539606 3.5928133,3.5928133 0 0 1 -3.539777,-3.644913 3.5928133,3.5928133 0 0 1 3.644747,-3.539947"
         sodipodi:open="true" /><g
         id="g5307"
         style="fill:none;stroke:#ffffff;stroke-width:1.11518636;stroke-dasharray:none"><g
           id="g18594"
           style="fill:none;stroke:#ffffff;stroke-width:1.11518636;stroke-dasharray:none"><rect
             style="fill:none;fill-opacity:1;fill-rule:evenodd;stroke:#ffffff;stroke-width:1.11518636;stroke-linecap:round;stroke-linejoin:round;stroke-dasharray:none;stroke-opacity:1;paint-order:fill markers stroke"
             id="rect3849"
             width="6.0831327"
             height="23.974699"
             x="88.695175"
             y="37.214458"
             rx="0" /><path
             style="fill:none;fill-opacity:1;fill-rule:evenodd;stroke:#ffffff;stroke-width:1.11519;stroke-linecap:round;stroke-linejoin:round;stroke-dasharray:none;stroke-opacity:1;paint-order:fill markers stroke"
             d="m 94.811735,47.591567 c 0,0 0.418245,-3.369583 2.560791,-4.473589 2.142546,-1.104006 4.998454,0.09015 4.998454,0.09015 l 1.25241,-5.36747 c 0,0 -2.77138,-1.249894 -5.143564,-0.343848 -2.372129,0.906045 -3.711999,3.623694 -3.711999,3.623694"
             id="path4577"
             sodipodi:nodetypes="czcczc" /></g></g><path
         style="fill:none;fill-opacity:1;fill-rule:evenodd;stroke:#ffffff;stroke-width:0.55759318;stroke-linecap:round;stroke-linejoin:round;stroke-dasharray:none;stroke-opacity:1;paint-order:fill markers stroke"
         d="m 120.67861,43.834338 c 0,0 -1.84052,-4.209317 -6.61987,-3.757229 -4.77936,0.452088 -6.03841,3.757229 -6.03841,3.757229 0,0 -1.20206,2.217314 -1.07349,5.501656 0.12856,3.284342 0.80512,5.099096 0.80512,5.099096 0,0 2.43261,4.317374 7.01482,4.041143 4.5822,-0.276231 6.26966,-4.801536 6.26966,-4.801536 l 2.81793,1.744429 c 0,0 -3.75692,7.315157 -10.91386,6.127862 -7.15694,-1.187296 -8.63268,-6.440964 -8.63268,-6.440964 0,0 -1.07867,-2.816409 -1.16295,-6.038403 -0.0843,-3.221995 1.29714,-6.127863 1.29714,-6.127863 0,0 1.91132,-5.393398 9.25842,-5.8693 7.3471,-0.475901 9.66191,4.974722 9.66191,4.974722 z"
         id="path6833"
         sodipodi:nodetypes="czczczcczczczcc" /><path
         style="fill:none;fill-opacity:1;fill-rule:evenodd;stroke:#ffffff;stroke-width:0.55759318;stroke-linecap:round;stroke-linejoin:round;stroke-dasharray:none;stroke-opacity:1;paint-order:fill markers stroke"
         d="m 125.41988,27.776656 h 3.57831 l 0.17892,28.894879 c 0,0 0.36752,1.380657 1.69827,1.70324 1.33075,0.322583 2.19314,-0.137727 2.19314,-0.137727 l 0.53675,2.862651 c 0,0 -1.91499,0.585242 -4.79639,0.07023 -2.8814,-0.515016 -3.21009,-3.335437 -3.21009,-3.335437 z"
         id="path9739"
         sodipodi:nodetypes="ccczcczcc" /><g
         id="g18598"
         style="fill:none;stroke:#ffffff;stroke-width:0.55759318;stroke-dasharray:none"><path
           style="fill:none;fill-opacity:1;fill-rule:evenodd;stroke:#ffffff;stroke-width:0.55759318;stroke-linecap:round;stroke-linejoin:round;stroke-dasharray:none;stroke-opacity:1;paint-order:fill markers stroke"
           d="m 151.22846,54.569277 2.59428,1.565511 c 0,0 -2.88451,6.048771 -10.37711,5.412199 -7.4926,-0.636573 -8.63268,-5.412199 -8.63268,-5.412199 0,0 -1.61304,-2.791952 -1.61024,-6.575149 0.003,-3.783197 1.61024,-7.022439 1.61024,-7.022439 0,0 1.5666,-4.99317 8.85633,-5.501657 7.28972,-0.508486 9.57198,5.501657 9.57198,5.501657 0,0 0.66622,2.502267 0.70275,3.757772 0.0365,1.255505 -0.38965,3.667227 -0.38965,3.667227 h -16.37078 c 0,0 -1.12566,5.873458 4.98478,8.124817 6.11044,2.25136 9.0601,-3.517739 9.0601,-3.517739 z"
           id="path10467"
           sodipodi:nodetypes="cczczczczcczc" /><path
           style="fill:none;fill-opacity:1;fill-rule:evenodd;stroke:#ffffff;stroke-width:0.55759318;stroke-linecap:round;stroke-linejoin:round;stroke-dasharray:none;stroke-opacity:1;paint-order:fill markers stroke"
           d="m 150.37861,47.144275 c 0,0 0.44362,-7.771789 -6.53042,-7.246084 -6.97403,0.525704 -6.61988,7.246084 -6.61988,7.246084 z"
           id="path11921"
           sodipodi:nodetypes="czc" /></g></g></g></svg>
