<?xml version="1.0" encoding="UTF-8" standalone="no"?>
<svg
   width="28"
   height="28"
   viewBox="0 0 28 28"
   fill="none"
   version="1.1"
   id="svg8"
   sodipodi:docname="profile.svg"
   inkscape:version="1.2.1 (9c6d41e410, 2022-07-14)"
   xmlns:inkscape="http://www.inkscape.org/namespaces/inkscape"
   xmlns:sodipodi="http://sodipodi.sourceforge.net/DTD/sodipodi-0.dtd"
   xmlns="http://www.w3.org/2000/svg"
   xmlns:svg="http://www.w3.org/2000/svg">
  <defs
     id="defs12" />
  <sodipodi:namedview
     id="namedview10"
     pagecolor="#ffffff"
     bordercolor="#000000"
     borderopacity="0.25"
     inkscape:showpageshadow="2"
     inkscape:pageopacity="0.0"
     inkscape:pagecheckerboard="0"
     inkscape:deskcolor="#d1d1d1"
     showgrid="false"
     inkscape:zoom="6.9310345"
     inkscape:cx="64.781094"
     inkscape:cy="11.325871"
     inkscape:window-width="1920"
     inkscape:window-height="991"
     inkscape:window-x="-9"
     inkscape:window-y="-9"
     inkscape:window-maximized="1"
     inkscape:current-layer="svg8" />
  <rect
     x="0.5"
     y="0.5"
     width="27"
     height="27"
     rx="13.5"
     stroke="white"
     id="rect2"
     style="stroke:#ffffff" />
  <path
     d="m 15.83,15.8101 h -3.66 c -2.0215,0 -3.65999,1.6384 -3.65999,3.66 v 0.61 c 0,0 1.90629,0.61 5.48999,0.61 3.5838,0 5.49,-0.61 5.49,-0.61 v -0.61 c 0,-2.0216 -1.6385,-3.66 -3.66,-3.66 z"
     stroke="white"
     stroke-width="1.464"
     stroke-miterlimit="10"
     stroke-linecap="round"
     id="path4"
     style="stroke:#ffffff" />
  <path
     d="m 10.95,10.3552 c 0,-1.68423 1.3657,-3.05002 3.05,-3.05002 1.6842,0 3.05,1.36579 3.05,3.05002 0,1.6842 -1.3658,3.66 -3.05,3.66 -1.6843,0 -3.05,-1.9758 -3.05,-3.66 z"
     stroke="white"
     stroke-width="1.464"
     stroke-miterlimit="10"
     stroke-linecap="round"
     id="path6"
     style="stroke:#ffffff" />
</svg>
