<?xml version="1.0" encoding="UTF-8" standalone="no"?>
<!-- Generator: Adobe Illustrator 15.1.0, SVG Export Plug-In . SVG Version: 6.00 Build 0)  -->

<svg
   version="1.1"
   id="Layer_1"
   x="0px"
   y="0px"
   width="400"
   height="400"
   viewBox="0 0 400 400"
   enable-background="new 0 0 112.167 33.333"
   xml:space="preserve"
   sodipodi:docname="denon.svg"
   inkscape:version="1.2.1 (9c6d41e410, 2022-07-14)"
   xmlns:inkscape="http://www.inkscape.org/namespaces/inkscape"
   xmlns:sodipodi="http://sodipodi.sourceforge.net/DTD/sodipodi-0.dtd"
   xmlns="http://www.w3.org/2000/svg"
   xmlns:svg="http://www.w3.org/2000/svg"><defs
   id="defs15" /><sodipodi:namedview
   id="namedview13"
   pagecolor="#ffffff"
   bordercolor="#000000"
   borderopacity="0.25"
   inkscape:showpageshadow="2"
   inkscape:pageopacity="0.0"
   inkscape:pagecheckerboard="0"
   inkscape:deskcolor="#d1d1d1"
   showgrid="false"
   inkscape:zoom="1.4086139"
   inkscape:cx="55.018623"
   inkscape:cy="265.15427"
   inkscape:window-width="1920"
   inkscape:window-height="991"
   inkscape:window-x="-9"
   inkscape:window-y="-9"
   inkscape:window-maximized="1"
   inkscape:current-layer="Layer_1" />




<rect
   style="fill:#000000;fill-rule:evenodd;stroke:none;stroke-width:8.99195;stroke-linecap:round;paint-order:fill markers stroke"
   id="rect296"
   width="400"
   height="400"
   x="0"
   y="0" /><g
   id="g357"
   style="fill:#ffffff;stroke:none"
   transform="matrix(2.9761398,0,0,2.9761398,33.162067,151.45332)"><polygon
     points="41.621,5.243 41.621,26.805 44.909,26.805 44.909,13.161 44.936,13.024 59.264,27.298 59.264,5.765 55.976,5.765 55.976,19.188 "
     id="polygon2"
     style="fill:#ffffff;stroke:none" /><polygon
     points="29.238,13.99 35.813,13.988 35.813,17.271 29.238,17.271 29.238,17.277 29.238,23.521 29.245,23.521 37.676,23.52 37.676,26.805 25.951,26.805 25.951,5.765 37.731,5.765 37.731,9.047 29.238,9.049 "
     id="polygon4"
     style="fill:#ffffff;stroke:none" /><polygon
     points="103.404,19.291 88.961,5.231 88.961,26.805 92.296,26.805 92.296,13.072 92.281,12.991 106.712,27.215 106.712,5.765 103.425,5.765 103.425,19.354 "
     id="polygon6"
     style="fill:#ffffff;stroke:none" /><path
     fill="#020202"
     d="m 5.405,5.765 v 21.039 h 6.986 c 0,0 9.862,-0.821 9.862,-10.602 0,-10.081 -9.89,-10.438 -9.89,-10.438 H 5.405 Z M 8.692,23.683 V 8.806 h 2.904 c 0,0 7.41,-0.138 7.41,7.52 0,6.994 -6.725,7.355 -6.725,7.355 z"
     id="path8"
     style="fill:#ffffff;stroke:none" /><path
     d="m 66.153,16.395 c 0,-4.408 3.539,-7.981 7.904,-7.981 4.365,0 8.068,3.051 8.068,7.981 0,4.408 -3.703,7.98 -8.068,7.98 -4.365,0 -7.904,-3.572 -7.904,-7.98 m 7.904,11.147 c 6.465,0.084 11.477,-5.575 11.477,-10.765 0,-5.588 -4.026,-11.696 -11.313,-11.696 -5.424,0 -11.422,4.409 -11.422,11.313 0,5.188 3.96,11.054 11.258,11.148"
     id="path10"
     style="fill:#ffffff;stroke:none" /></g>
</svg>
