<?xml version="1.0" encoding="UTF-8" standalone="no"?>
<svg
   width="485.71301"
   height="397.63101"
   viewBox="0 0 485.71301 397.63101"
   version="1.1"
   id="svg21"
   sodipodi:docname="jbl.svg"
   inkscape:version="1.2.1 (9c6d41e410, 2022-07-14)"
   xmlns:inkscape="http://www.inkscape.org/namespaces/inkscape"
   xmlns:sodipodi="http://sodipodi.sourceforge.net/DTD/sodipodi-0.dtd"
   xmlns="http://www.w3.org/2000/svg"
   xmlns:svg="http://www.w3.org/2000/svg">
  <sodipodi:namedview
     id="namedview23"
     pagecolor="#ffffff"
     bordercolor="#000000"
     borderopacity="0.25"
     inkscape:showpageshadow="2"
     inkscape:pageopacity="0.0"
     inkscape:pagecheckerboard="0"
     inkscape:deskcolor="#d1d1d1"
     showgrid="false"
     inkscape:zoom="0.83669355"
     inkscape:cx="-4.7807229"
     inkscape:cy="191.82651"
     inkscape:window-width="1920"
     inkscape:window-height="991"
     inkscape:window-x="-9"
     inkscape:window-y="-9"
     inkscape:window-maximized="1"
     inkscape:current-layer="logo" />
  <!-- Generator: Sketch 51 (57462) - http://www.bohemiancoding.com/sketch -->
  <title
     id="title2">
  logo
 </title>
  <desc
     id="desc4">
  Created with Sketch.
 </desc>
  <defs
     id="defs6" />
  <g
     id="Symbols"
     stroke="none"
     stroke-width="1"
     fill="none"
     fill-rule="evenodd">
    <g
       id="Static-/-logo">
      <g
         id="logo">
        <path
           d="M 0,0 H 485.713 V 397.631 H 0 Z"
           id="Back"
           fill="#ff3300"
           sodipodi:nodetypes="ccccc" />
        <g
           id="JBL"
           transform="translate(99,115)"
           fill="#ffffff">
          <path
             d="m 218.714,166.667 h 83.169 v -53.025 h -27.456 l 0.02,28.989 c 0,7.773 -6.332,14.102 -14.142,14.102 -7.803,0 -14.142,-6.329 -14.142,-14.102 V 0.144 h -27.449 z"
             id="Path" />
          <path
             d="M 116.427,166.667 V 0.144 h 54.879 c 10.589,0 27.436,8.694 27.436,27.133 v 28.366 c 0,8.294 -7.274,22.992 -18.081,22.992 10.807,0 18.081,9.311 18.081,16.365 v 49.915 c 0,8.49 -6.854,21.752 -27.436,21.752 z m 42.405,-94.829 c 9.979,0 12.474,-1.68 12.474,-27.783 0,-26.096 -2.495,-28.176 -12.474,-28.176 h -14.989 v 55.919 z m 12.474,47.808 c 0,-26.11 0,-33.754 -10.834,-33.754 h -16.629 v 67.093 l 16.629,0.034 c 10.834,0 10.834,-7.284 10.834,-33.373 z"
             id="Combined-Shape" />
          <path
             d="m 12.446,137.664 c 0,12.008 10.813,31.476 41.577,31.476 30.772,0 41.592,-14.894 41.592,-31.476 V 0.144 H 68.158 l 0.014,142.297 c 0,7.773 -6.319,14.292 -14.128,14.292 -7.817,0 -14.149,-6.329 -14.149,-14.102 l -0.02,-28.989 H 12.446 Z"
             id="path11" />
          <path
             d="m 26.167,95.501 c 8.759,0 15.877,-7.095 15.877,-15.816 0,-8.762 -7.118,-15.829 -15.877,-15.829 -8.786,0 -15.884,7.067 -15.884,15.829 0,8.721 7.098,15.816 15.884,15.816 z"
             id="path13" />
          <polygon
             id="polygon15"
             points="0.799,0.144 26.167,57.716 51.529,0.144 " />
        </g>
      </g>
    </g>
  </g>
</svg>
